P2
36 216
255
0 0 0 0 0 0 0 0 0 0 0 0 0 0 0 0 0 0 0 0 0 0 0 0 0 0 0 0 0 0 0 0 0 0 0 0 
9 6 2 0 1 3 4 3 1 0 0 0 0 0 0 0 0 0 0 0 0 0 0 0 0 0 0 0 0 0 0 0 0 0 0 0 
0 0 0 0 0 0 0 0 0 0 0 0 0 0 0 0 0 0 0 0 0 0 0 0 0 0 0 0 0 0 0 0 0 0 0 0 
0 0 0 0 0 0 0 0 0 0 0 0 0 0 0 0 0 0 0 0 0 0 0 0 0 0 0 0 0 0 0 0 0 0 0 0 
13 8 5 0 3 5 6 2 1 0 1 4 3 2 0 0 0 0 0 0 0 0 0 0 0 0 0 0 0 0 0 0 0 0 0 0 
0 0 0 0 1 0 0 0 0 0 0 0 0 0 0 0 0 0 0 0 0 0 0 0 0 0 0 0 0 0 0 0 0 0 0 0 
0 0 0 0 0 0 0 0 0 0 0 0 0 0 0 0 0 0 0 0 0 0 0 0 0 0 0 0 0 0 0 0 0 0 0 0 
12 9 7 4 4 5 3 1 0 1 6 13 12 8 5 2 1 0 0 0 0 0 0 0 0 0 0 0 0 0 0 0 0 0 0 0 
0 0 0 1 1 0 0 0 0 0 0 0 0 0 0 0 0 0 0 0 0 0 0 0 0 0 0 0 0 0 0 0 0 0 0 0 
0 0 0 0 0 0 0 0 0 0 0 0 0 0 0 0 0 0 0 0 0 0 0 0 0 0 0 0 0 0 0 0 0 0 0 0 
14 11 12 7 5 5 2 0 0 5 20 28 21 14 11 7 4 2 1 0 0 0 0 0 0 0 0 0 0 0 0 0 0 0 0 0 
0 0 0 1 1 0 0 0 0 0 0 0 0 0 0 0 0 0 0 0 0 0 0 0 0 0 0 0 0 0 0 0 0 0 0 0 
0 0 0 0 0 0 0 0 0 0 0 0 0 0 0 0 0 0 0 0 0 0 0 0 0 0 0 0 0 0 0 0 0 0 0 0 
15 17 16 10 6 4 1 0 2 13 41 53 36 24 18 11 10 7 4 2 0 0 0 0 0 0 0 0 0 0 0 0 0 0 0 0 
0 0 1 0 0 0 0 0 0 0 0 0 0 0 0 0 0 0 0 0 0 0 0 0 0 0 0 0 0 0 0 0 0 0 0 0 
0 0 0 0 0 0 0 0 0 0 0 1 0 0 0 0 0 0 0 0 0 0 0 0 0 0 0 0 0 0 0 0 0 0 0 0 
21 24 18 13 10 3 1 0 6 27 59 72 68 55 44 23 16 12 10 6 1 0 0 0 0 0 0 0 0 0 0 0 0 0 0 0 
0 0 0 0 0 0 0 0 0 0 0 1 0 0 0 0 0 0 0 0 0 0 0 0 0 0 0 0 0 0 0 0 0 0 0 0 
0 0 0 0 0 0 0 0 0 0 1 2 1 0 0 0 0 0 0 0 0 0 0 0 0 0 0 0 0 0 0 0 0 0 0 0 
30 31 19 14 14 3 1 2 14 37 49 58 79 83 81 57 39 24 19 11 3 0 0 0 0 0 0 0 0 0 0 0 0 0 0 0 
0 0 0 0 0 0 0 0 0 0 1 2 1 0 0 0 0 0 0 0 0 0 0 0 0 0 0 0 0 0 0 0 0 0 0 0 
0 0 0 0 0 0 0 0 0 0 2 4 2 1 0 0 0 0 0 0 0 0 0 0 0 0 0 0 0 0 0 0 0 0 0 0 
40 38 22 12 12 5 2 5 21 35 37 33 57 79 90 84 76 62 37 19 7 1 0 0 0 0 0 0 0 0 0 0 0 0 0 0 
0 0 0 0 0 0 0 0 0 0 3 5 1 1 0 0 0 0 0 0 0 0 0 0 0 0 0 0 0 0 0 0 0 0 0 0 
0 0 0 0 0 0 0 0 0 0 4 8 4 2 0 0 0 0 0 0 0 0 0 0 0 0 0 0 0 0 0 0 0 0 0 0 
48 47 24 11 8 8 6 10 23 30 29 23 36 69 87 90 88 92 77 37 11 3 0 0 0 0 0 0 0 0 0 0 0 0 0 0 
0 0 0 0 0 0 0 0 0 0 5 7 3 1 0 0 0 0 0 0 0 0 0 0 0 0 0 0 0 0 0 0 0 0 0 0 
0 0 0 0 0 0 0 0 0 0 6 10 8 3 2 0 0 0 0 0 0 0 0 0 0 0 0 0 0 0 0 0 0 0 0 0 
56 50 24 9 7 8 8 15 24 30 26 14 25 57 80 83 82 84 101 73 20 7 0 0 0 0 0 0 0 0 0 0 0 0 0 0 
0 0 0 0 0 0 0 0 0 0 6 9 6 3 1 0 0 0 0 0 0 0 0 0 0 0 0 0 0 0 0 0 0 0 0 0 
0 0 0 0 0 0 0 0 0 1 8 11 12 7 3 1 0 0 0 0 0 0 0 0 0 0 0 0 0 0 0 0 0 0 0 0 
49 40 22 10 7 8 11 18 22 30 22 11 16 47 78 76 75 69 84 113 46 11 2 0 0 0 0 0 0 0 0 0 0 0 0 0 
0 0 0 0 0 0 0 0 0 1 9 11 10 6 3 2 1 0 0 0 0 0 0 0 0 0 0 0 0 0 0 0 0 0 0 0 
0 0 0 0 0 0 0 0 0 2 10 12 15 15 7 3 1 0 0 0 0 0 0 0 0 0 0 0 0 0 0 0 0 0 0 0 
40 31 23 11 6 8 13 18 20 28 19 9 10 32 69 73 67 60 65 117 98 18 7 0 0 0 0 0 0 0 0 0 0 0 0 0 
0 0 0 0 0 0 0 0 0 3 11 12 15 13 7 4 2 1 1 0 0 0 0 0 0 0 0 0 0 0 0 0 0 0 0 0 
0 0 0 0 0 0 0 0 0 4 12 13 16 22 16 7 2 1 1 0 0 0 0 0 0 0 0 0 0 0 0 0 0 0 0 0 
36 31 24 13 7 6 12 17 21 26 14 4 4 17 48 62 56 52 59 100 124 35 11 0 0 0 0 0 0 0 0 0 0 0 0 0 
0 0 0 0 0 0 0 0 1 6 11 13 19 24 15 11 5 2 2 1 0 0 0 0 0 0 0 0 0 0 0 0 0 0 0 0 
0 0 0 0 0 0 0 0 1 7 14 14 16 22 25 15 7 2 2 1 0 0 0 0 0 0 0 0 0 0 0 0 0 0 0 0 
36 32 24 15 9 6 9 14 23 25 11 1 1 7 26 41 44 41 53 82 120 69 14 2 0 0 0 0 0 0 0 0 0 0 0 0 
0 0 0 0 0 0 0 0 2 11 12 13 21 30 25 21 12 4 4 2 0 0 0 0 0 0 0 0 0 0 0 0 0 0 0 0 
0 0 0 0 0 0 1 1 3 11 14 14 15 20 31 23 15 7 5 2 1 0 0 0 0 0 0 0 0 0 0 0 0 0 0 0 
35 34 24 16 13 6 10 13 28 24 6 1 0 3 11 20 23 28 46 66 104 105 21 7 0 0 0 0 0 0 0 0 0 0 0 0 
0 0 0 0 0 0 1 1 5 20 14 13 23 28 30 27 18 8 6 3 1 0 0 0 0 0 0 0 0 0 0 0 0 0 0 0 
0 0 0 0 0 0 2 2 7 18 17 14 15 19 30 30 22 15 10 5 1 0 0 0 0 0 0 0 0 0 0 0 0 0 0 0 
36 33 24 17 14 7 10 15 36 22 2 1 0 2 6 8 9 12 33 57 86 114 41 11 0 0 0 0 0 0 0 0 0 0 0 0 
0 0 0 0 0 1 2 2 11 27 16 15 25 25 30 30 17 16 12 6 2 1 0 0 0 0 0 0 0 0 0 0 0 0 0 0 
0 0 0 0 0 0 4 6 13 29 19 14 15 20 30 30 22 20 18 10 3 1 0 0 0 0 0 0 0 0 0 0 0 0 0 0 
38 34 25 18 13 8 10 23 47 20 1 0 0 2 5 7 6 5 16 45 71 107 76 14 2 0 0 0 0 0 0 0 0 0 0 0 
0 0 0 0 0 1 4 6 18 33 19 16 26 28 27 31 19 20 18 11 3 1 0 0 0 0 0 0 0 0 0 0 0 0 0 0 
0 0 0 0 0 1 5 9 20 34 20 15 16 21 29 29 22 17 21 17 6 1 0 0 0 0 0 0 0 0 0 0 0 0 0 0 
41 35 27 19 13 9 10 39 59 17 1 0 1 3 5 9 7 7 8 28 60 93 104 20 6 0 0 0 0 0 0 0 0 0 0 0 
0 0 0 0 0 1 4 9 22 35 21 16 25 31 28 30 23 18 21 18 7 2 0 0 0 0 0 0 0 0 0 0 0 0 0 0 
0 0 0 0 0 1 5 10 22 35 19 15 15 23 29 23 20 16 18 24 13 2 0 0 0 0 0 0 0 0 0 0 0 0 0 0 
42 37 28 20 14 9 14 53 66 16 0 0 1 4 7 13 10 8 8 14 44 79 110 38 11 0 0 0 0 0 0 0 0 0 0 0 
0 0 0 0 0 2 4 9 25 30 17 16 26 32 28 29 26 19 18 24 15 3 1 0 0 0 0 0 0 0 0 0 0 0 0 0 
0 0 0 0 0 2 5 10 21 32 17 16 17 26 28 22 19 16 17 24 21 5 1 0 0 0 0 0 0 0 0 0 0 0 0 0 
43 38 28 22 15 10 19 58 58 18 0 0 1 5 10 22 15 9 7 10 29 68 102 76 14 1 0 0 0 0 0 0 0 0 0 0 
0 0 0 0 1 2 6 9 24 26 15 16 26 29 30 29 26 22 17 23 23 8 2 0 0 0 0 0 0 0 0 0 0 0 0 0 
0 0 0 0 0 2 7 10 18 29 15 17 20 26 27 21 19 17 16 20 27 9 1 0 0 0 0 0 0 0 0 0 0 0 0 0 
50 43 32 25 16 11 22 52 42 20 0 0 3 10 15 30 23 15 8 8 16 52 92 104 19 4 0 0 0 0 0 0 0 0 0 0 
0 0 0 0 1 3 8 7 21 22 13 16 23 28 30 28 26 23 17 21 28 14 2 0 0 0 0 0 0 0 0 0 0 0 0 0 
0 0 0 0 1 4 11 8 16 26 15 16 22 26 26 23 18 18 16 19 28 17 2 1 0 0 0 0 0 0 0 0 0 0 0 0 
61 46 34 28 17 13 26 42 30 22 1 0 7 20 26 37 31 26 12 9 10 38 82 111 29 9 0 0 0 0 0 0 0 0 0 0 
1 0 0 0 2 5 9 6 16 19 13 18 24 27 26 21 26 23 18 22 29 20 4 1 0 0 0 0 0 0 0 0 0 0 0 0 
0 0 0 0 2 6 11 8 14 25 16 18 22 26 26 24 18 18 16 18 26 24 4 1 0 0 0 0 0 0 0 0 0 0 0 0 
73 49 36 28 19 17 28 37 19 21 2 2 14 32 38 45 37 36 20 13 8 23 68 106 56 14 0 0 0 0 0 0 0 0 0 0 
2 1 0 0 4 6 9 5 15 17 13 18 23 24 24 18 21 20 20 22 27 27 8 1 0 0 0 0 0 0 0 0 0 0 0 0 
2 1 0 0 4 7 10 7 14 21 16 18 22 25 24 23 16 17 15 18 25 28 8 2 0 0 0 0 0 0 0 0 0 0 0 0 
81 50 36 30 23 22 28 34 15 19 3 5 22 42 47 55 45 47 28 20 8 14 53 97 91 18 1 0 0 0 0 0 0 0 0 0 
4 2 1 1 5 5 6 5 13 16 13 17 19 23 24 19 17 18 21 24 26 27 14 2 0 0 0 0 0 0 0 0 0 0 0 0 
4 3 1 1 6 5 6 6 13 19 17 19 20 23 23 19 12 13 14 18 25 28 16 3 0 0 0 0 0 0 0 0 0 0 0 0 
83 45 37 35 31 27 29 31 15 18 5 13 28 47 54 61 53 56 33 28 10 10 37 86 113 22 5 0 0 0 0 0 0 0 0 0 
8 5 2 1 7 4 4 5 12 15 12 16 16 23 24 20 18 16 20 24 26 28 22 4 1 0 0 0 0 0 0 0 0 0 0 0 
9 7 3 2 8 5 6 6 14 17 17 19 19 20 21 14 11 12 13 18 25 28 22 4 1 0 0 0 0 0 0 0 0 0 0 0 
76 41 36 41 34 29 29 32 21 18 7 21 38 52 61 65 61 64 41 36 13 8 24 76 113 34 9 0 0 0 0 0 0 0 0 0 
13 8 4 3 7 4 5 5 11 13 13 17 13 21 23 22 17 16 17 24 26 26 29 9 1 0 0 0 0 0 0 0 0 0 0 0 
17 12 7 5 9 5 6 7 13 15 18 19 18 18 20 13 15 15 14 19 25 27 27 8 2 0 0 0 0 0 0 0 0 0 0 0 
69 39 37 43 34 25 29 33 30 21 8 28 51 54 69 70 68 74 46 45 22 8 15 66 99 57 14 0 0 0 0 0 0 0 0 0 
21 13 7 4 8 4 5 6 11 12 14 15 13 20 23 22 18 16 17 23 26 26 32 15 2 0 0 0 0 0 0 0 0 0 0 0 
33 19 12 8 10 5 6 8 12 15 17 19 16 17 18 14 18 17 16 19 24 27 31 14 2 0 0 0 0 0 0 0 0 0 0 0 
66 34 35 41 38 25 32 33 39 24 11 36 56 57 77 76 75 76 53 52 30 10 11 51 86 90 18 1 0 0 0 0 0 0 0 0 
36 21 13 7 8 5 5 7 10 13 17 15 14 20 24 22 19 17 18 20 26 25 31 21 3 0 0 0 0 0 0 0 0 0 0 0 
49 28 18 10 11 6 6 8 12 15 18 17 16 17 17 14 19 18 18 19 24 27 29 20 3 0 0 0 0 0 0 0 0 0 0 0 
63 30 30 37 43 26 35 33 44 29 15 44 61 65 83 80 81 78 58 60 35 10 9 38 77 107 22 3 0 0 0 0 0 0 0 0 
52 31 17 8 8 5 5 8 9 15 19 18 14 23 26 23 19 16 16 20 25 25 29 27 5 1 0 0 0 0 0 0 0 0 0 0 
64 39 27 13 10 7 7 9 12 16 20 19 19 18 16 17 18 20 19 22 24 26 29 28 5 1 0 0 0 0 0 0 0 0 0 0 
55 26 25 30 46 30 38 34 48 35 18 51 69 67 82 82 85 82 66 67 39 12 9 25 69 111 28 7 0 0 0 0 0 0 0 0 
58 39 22 9 7 5 6 7 8 17 20 19 17 25 29 26 22 16 16 20 24 26 28 33 7 2 0 0 0 0 0 0 0 0 0 0 
68 51 37 16 12 7 7 11 12 18 22 21 23 19 18 18 20 19 20 21 24 25 29 34 7 2 0 0 0 0 0 0 0 0 0 0 
48 22 21 24 56 36 39 38 51 43 25 54 74 73 86 83 86 87 73 69 43 19 10 15 63 101 42 12 0 0 0 0 0 0 0 0 
64 46 28 11 8 6 6 8 8 19 23 21 20 27 31 28 23 19 17 20 22 26 27 34 11 2 0 0 0 0 0 0 0 0 0 0 
71 61 51 19 12 8 8 12 12 21 23 22 26 22 20 20 23 21 19 22 24 25 28 36 13 2 0 0 0 0 0 0 0 0 0 0 
46 19 19 22 75 51 40 40 58 51 28 56 79 80 89 84 86 90 78 71 48 28 13 11 52 87 66 17 0 0 0 0 0 0 0 0 
68 55 32 15 9 7 7 8 8 20 25 22 24 27 32 30 24 21 17 19 19 25 29 33 16 3 0 0 0 0 0 0 0 0 0 0 
75 72 55 24 13 9 9 12 12 22 25 22 28 25 24 24 25 25 20 21 24 25 27 34 18 3 0 0 0 0 0 0 0 0 0 0 
42 17 17 24 85 67 43 44 66 62 32 58 81 87 91 85 88 99 84 73 54 36 19 10 40 76 92 19 1 0 0 0 0 0 0 0 
75 62 37 21 10 7 7 8 9 22 27 23 27 30 34 33 26 23 18 19 20 22 28 33 21 3 0 0 0 0 0 0 0 0 0 0 
79 78 54 32 13 9 9 13 11 25 26 23 30 28 25 25 27 26 21 21 23 26 27 31 25 4 0 0 0 0 0 0 0 0 0 0 
36 16 15 27 90 78 46 49 71 68 35 62 82 91 92 84 91 103 88 79 59 44 24 9 31 68 105 23 4 0 0 0 0 0 0 0 
77 61 38 27 12 7 7 8 10 23 28 24 30 33 36 34 28 24 16 19 21 21 29 32 27 5 1 0 0 0 0 0 0 0 0 0 
91 80 49 44 15 10 10 12 12 27 27 26 32 30 30 27 30 28 22 21 23 26 26 31 30 5 1 0 0 0 0 0 0 0 0 0 
29 14 13 29 94 88 50 55 72 68 37 64 83 93 89 80 95 101 91 84 66 54 29 10 21 62 112 31 8 0 0 0 0 0 0 0 
78 61 38 34 16 9 8 8 11 26 30 27 36 33 36 35 30 25 17 19 21 22 28 31 30 7 1 0 0 0 0 0 0 0 0 0 
99 83 47 52 21 13 11 12 13 30 31 26 34 32 32 30 31 28 24 21 22 26 24 29 33 8 2 0 0 0 0 0 0 0 0 0 
25 13 12 28 92 97 56 61 76 69 39 65 86 96 85 77 94 96 94 92 74 63 34 11 15 57 104 45 13 0 0 0 0 0 0 0 
82 58 36 40 21 10 8 7 14 28 31 26 36 37 39 38 31 25 20 21 21 23 27 31 31 9 3 0 0 0 0 0 0 0 0 0 
107 80 49 59 32 18 11 12 15 32 31 26 36 35 35 32 33 30 25 21 23 26 24 27 34 11 2 0 0 0 0 0 0 0 0 0 
22 11 10 26 94 103 63 70 79 71 39 71 85 95 78 74 93 89 97 98 83 69 39 13 11 49 91 72 18 0 0 0 0 0 0 0 
85 54 38 45 28 13 8 8 17 32 34 26 40 39 39 42 33 24 23 23 21 25 27 31 32 14 3 0 0 0 0 0 0 0 0 0 
115 79 48 60 51 26 11 12 19 35 34 26 39 39 35 37 36 34 27 22 26 27 24 25 33 14 3 0 0 0 0 0 0 0 0 0 
21 11 9 24 91 107 72 79 81 67 40 72 87 94 77 75 93 87 95 97 89 75 46 17 9 41 82 99 22 1 0 0 0 0 0 0 
84 52 38 53 38 17 8 10 25 36 34 27 39 43 42 42 34 25 25 26 22 25 27 29 32 20 3 0 0 0 0 0 0 0 0 0 
120 73 48 60 61 39 13 14 26 41 38 25 39 42 37 39 39 36 27 25 28 26 25 27 32 17 4 0 0 0 0 0 0 0 0 0 
19 12 7 21 84 114 85 86 85 65 39 74 91 90 79 79 93 85 95 91 90 78 55 24 10 30 72 113 25 3 0 0 0 0 0 0 
77 51 39 60 48 22 10 14 35 42 34 29 40 43 42 44 36 27 28 27 23 25 27 30 32 24 4 1 0 0 0 0 0 0 0 0 
110 70 52 57 67 49 18 19 36 48 37 26 41 46 37 42 39 37 28 28 29 27 24 28 29 22 5 1 0 0 0 0 0 0 0 0 
20 12 7 17 73 118 95 88 93 63 40 74 96 89 82 83 93 86 97 86 89 79 64 32 11 20 66 116 32 7 0 0 0 0 0 0 
67 50 42 67 57 33 17 21 50 49 34 32 44 45 40 47 37 29 32 29 24 26 27 30 31 28 5 1 0 0 0 0 0 0 0 0 
97 66 56 56 74 56 26 24 48 60 36 28 43 48 41 46 39 41 31 31 29 28 23 28 28 23 6 1 0 0 0 0 0 0 0 0 
19 12 7 14 58 119 104 86 99 61 41 75 97 87 88 87 92 89 94 86 85 82 72 39 15 14 61 105 43 11 0 0 0 0 0 0 
59 51 46 67 67 49 25 31 64 58 32 36 47 43 39 50 35 31 35 30 27 28 27 28 31 29 8 2 0 0 0 0 0 0 0 0 
86 61 55 57 81 67 38 35 59 68 37 32 42 50 43 48 40 41 32 34 31 28 25 28 29 25 8 2 0 0 0 0 0 0 0 0 
19 12 8 12 41 119 110 84 102 60 41 77 96 85 90 87 92 92 97 92 86 80 77 47 22 12 57 97 65 15 0 0 0 0 0 0 
53 52 51 66 75 61 38 45 70 62 33 39 50 43 38 50 36 33 37 34 28 30 27 28 30 30 12 3 0 0 0 0 0 0 0 0 
74 55 51 55 86 79 56 48 70 73 38 34 43 51 44 48 39 42 33 36 31 30 28 28 29 26 11 2 0 0 0 0 0 0 0 0 
18 11 7 11 26 109 112 82 106 59 43 77 96 88 97 86 92 92 99 98 84 82 78 54 26 11 48 90 100 20 0 0 0 0 0 0 
51 51 53 61 83 75 55 56 74 66 33 40 54 44 38 52 37 35 41 35 30 31 28 29 29 30 16 3 0 0 0 0 0 0 0 0 
63 55 52 50 90 92 72 60 73 74 38 35 43 49 46 43 38 41 36 36 31 31 28 30 28 25 16 3 0 0 0 0 0 0 0 0 
16 10 8 10 17 90 109 80 106 55 43 79 98 92 101 89 95 97 100 98 85 82 77 59 28 10 40 80 133 23 1 0 0 0 0 0 
52 52 52 57 87 89 71 59 79 66 35 40 55 41 38 50 42 37 43 37 31 31 28 30 29 27 21 4 1 0 0 0 0 0 0 0 
60 56 53 48 94 95 83 62 77 75 39 37 43 46 46 44 38 41 40 36 33 32 26 28 29 25 20 4 0 0 0 0 0 0 0 0 
15 10 8 10 11 64 105 79 105 54 45 77 94 95 101 90 96 96 104 98 89 84 78 68 32 11 30 71 153 29 4 0 0 0 0 0 
52 51 47 55 90 88 70 63 79 68 35 39 51 42 39 51 45 41 44 38 33 33 28 30 29 26 26 5 1 0 0 0 0 0 0 0 
60 59 53 49 92 96 83 63 75 77 40 38 42 48 46 44 41 42 45 36 33 31 26 28 30 24 24 5 1 0 0 0 0 0 0 0 
15 10 8 9 8 41 100 77 102 49 44 81 94 98 103 96 100 93 103 101 94 87 82 80 38 13 23 66 160 36 7 0 0 0 0 0 
51 48 43 53 88 86 68 62 76 64 36 38 50 42 41 52 49 45 43 39 35 33 30 29 30 27 29 6 2 0 0 0 0 0 0 0 
58 57 56 49 85 96 80 61 73 73 40 39 42 47 49 47 43 41 49 39 36 27 26 30 30 26 27 6 1 0 0 0 0 0 0 0 
15 9 8 9 6 24 98 73 99 44 48 80 93 97 101 99 102 93 101 103 97 90 91 88 41 15 16 61 148 52 10 0 0 0 0 0 
49 47 42 48 84 85 68 63 75 64 34 37 51 44 45 51 52 53 47 39 35 35 32 29 30 27 29 9 2 0 0 0 0 0 0 0 
55 58 57 52 79 90 77 59 71 68 38 42 44 50 51 50 42 40 50 40 38 27 26 29 30 26 29 7 2 0 0 0 0 0 0 0 
14 9 7 9 5 16 96 70 94 43 50 84 94 100 100 103 104 97 100 101 100 92 104 91 46 22 13 56 132 78 14 0 0 0 0 0 
49 47 42 40 77 84 67 62 75 64 34 38 51 45 47 49 51 56 48 40 36 38 34 30 30 27 29 12 3 0 0 0 0 0 0 0 
55 56 51 52 74 86 74 56 69 68 39 46 45 51 53 52 44 39 51 42 41 29 26 29 30 26 27 10 3 0 0 0 0 0 0 0 
14 9 7 9 5 11 90 68 89 39 51 86 95 100 100 105 106 101 100 104 99 92 113 94 50 28 12 48 116 115 18 0 0 0 0 0 
49 47 40 39 75 84 67 62 75 62 36 43 50 50 50 49 48 54 48 42 38 39 36 30 31 29 26 18 4 0 0 0 0 0 0 0 
58 56 49 48 71 87 76 54 69 68 40 45 47 52 57 57 44 38 53 45 44 32 26 28 30 26 25 13 3 0 0 0 0 0 0 0 
14 9 7 9 4 8 82 63 87 38 54 85 95 102 103 105 105 106 99 107 101 92 112 90 60 33 11 39 102 145 22 0 0 0 0 0 
48 47 42 39 71 82 68 65 76 60 36 47 50 53 52 47 50 51 47 43 40 43 37 32 30 31 25 22 4 1 0 0 0 0 0 0 
61 60 50 50 74 86 75 55 70 65 38 46 49 55 64 59 45 36 53 49 48 34 27 25 30 27 24 16 4 0 0 0 0 0 0 0 
14 9 7 9 4 7 73 65 84 36 57 83 96 101 105 110 108 109 102 110 96 92 108 84 69 39 13 31 91 165 28 1 0 0 0 0 
51 54 46 41 67 82 70 68 78 57 39 49 51 56 56 48 47 49 47 42 42 46 37 33 31 31 25 26 5 1 0 0 0 0 0 0 
61 64 57 61 72 80 75 57 74 61 41 50 52 60 69 65 45 36 55 53 52 38 29 25 29 28 24 18 4 1 0 0 0 0 0 0 
15 10 7 8 4 6 61 65 80 36 56 85 94 102 109 112 111 109 106 111 92 95 98 80 79 41 13 23 80 178 32 3 0 0 0 0 
64 70 56 45 58 81 71 70 77 55 40 50 54 58 58 52 47 49 47 41 45 48 36 32 31 31 26 29 7 2 0 0 0 0 0 0 
71 79 81 75 64 75 76 60 76 55 40 50 57 62 72 69 50 36 56 53 53 40 31 26 29 28 26 22 6 1 0 0 0 0 0 0 
15 10 7 8 4 7 53 68 78 36 57 88 98 104 108 112 115 111 108 109 88 97 93 80 86 41 15 17 70 186 41 5 0 0 0 0 
74 80 62 47 54 81 74 70 78 54 41 50 55 61 63 58 47 51 45 41 47 45 34 34 31 30 28 30 9 2 0 0 0 0 0 0 
77 85 90 81 61 66 77 64 75 54 43 51 61 64 71 72 54 39 55 50 55 39 35 27 30 29 27 25 7 2 0 0 0 0 0 0 
15 10 7 8 4 7 49 67 76 36 58 90 94 105 112 115 117 115 112 106 86 102 90 85 86 38 18 13 63 175 51 8 0 0 0 0 
80 85 66 54 54 77 73 71 79 54 40 46 55 64 69 62 47 49 45 42 45 42 34 36 29 31 29 30 11 3 0 0 0 0 0 0 
84 90 102 79 62 63 79 64 75 53 43 54 63 66 67 71 56 39 51 46 55 39 36 30 31 27 28 27 9 3 0 0 0 0 0 0 
15 10 8 8 5 5 45 71 69 36 60 90 92 107 114 116 119 114 108 103 89 104 91 96 86 35 20 12 55 158 69 10 0 0 0 0 
88 86 72 55 56 69 70 70 83 50 39 44 52 64 68 66 51 50 49 43 43 36 35 35 31 31 28 29 17 3 0 0 0 0 0 0 
91 98 108 80 64 67 76 65 74 55 43 53 64 70 61 71 57 43 47 43 53 41 37 33 31 27 31 27 12 3 0 0 0 0 0 0 
16 11 8 8 5 5 40 75 64 36 62 84 87 107 114 118 120 119 110 101 94 104 94 104 81 40 22 11 49 140 92 13 0 0 0 0 
95 85 75 64 63 66 69 69 82 49 39 43 49 68 65 71 58 53 52 42 42 35 39 36 30 31 27 30 20 4 0 0 0 0 0 0 
95 102 106 82 68 71 73 63 77 58 45 53 61 66 54 68 60 45 46 44 53 45 38 35 31 26 29 26 15 4 0 0 0 1 0 0 
17 11 8 8 6 4 38 72 58 34 66 84 86 107 116 131 122 122 112 103 99 102 98 104 78 47 28 11 39 120 117 16 0 0 0 0 
97 81 78 70 72 66 69 69 82 48 41 41 45 67 63 70 65 54 54 46 43 38 42 35 30 31 26 30 24 4 0 0 0 0 0 0 
103 106 100 84 75 74 75 67 79 61 47 54 55 65 49 63 62 50 46 47 51 48 40 36 33 25 29 27 17 4 0 0 0 0 0 0 
17 10 8 8 5 4 36 60 54 31 67 84 87 110 119 138 124 124 114 106 100 98 98 105 79 55 37 12 31 104 133 19 0 0 1 0 
94 80 76 74 75 67 72 76 81 51 45 42 43 66 60 69 70 55 54 46 44 41 42 35 27 30 27 31 27 5 1 0 0 0 1 0 
108 107 92 87 79 82 76 74 79 63 50 55 53 65 49 58 68 54 49 49 52 51 40 38 35 26 28 31 21 5 1 0 0 1 0 0 
17 11 7 8 6 4 39 52 53 31 70 87 92 113 123 137 130 124 114 107 105 97 98 97 81 65 44 12 22 91 151 22 1 0 1 0 
91 75 74 75 75 71 77 82 78 54 52 45 44 66 56 68 76 57 54 47 46 45 45 34 23 28 28 30 27 6 1 0 0 0 1 0 
116 101 88 87 78 87 80 85 78 64 53 58 51 66 51 57 69 56 52 52 51 53 41 39 34 27 26 32 27 6 1 0 0 1 0 0 
17 12 8 9 6 4 40 44 50 28 70 87 98 117 122 133 134 120 117 109 109 96 96 95 87 77 51 14 18 80 164 27 1 0 1 0 
90 73 68 70 73 76 83 84 73 54 50 50 47 65 53 61 76 57 57 48 46 47 46 32 23 23 28 29 29 8 1 0 0 0 1 0 
120 94 84 81 74 90 86 90 75 63 54 56 50 65 50 54 69 58 58 53 52 55 42 41 35 28 26 32 31 8 2 0 0 1 0 0 
17 12 8 9 6 5 41 38 45 27 69 85 104 116 120 121 134 124 123 110 107 94 93 92 94 86 52 17 14 69 171 31 2 0 1 0 
90 72 66 65 72 80 92 80 68 54 51 55 54 63 49 56 75 61 59 50 46 48 45 30 25 20 25 29 31 9 2 0 0 1 2 1 
115 87 79 78 76 92 94 89 76 61 55 58 51 66 49 55 70 61 60 54 53 54 43 43 34 29 26 31 33 10 2 0 0 0 0 0 
17 13 7 10 7 7 43 32 38 25 66 82 109 117 113 112 128 126 124 113 110 98 92 90 99 89 60 21 12 60 173 35 4 0 1 0 
89 71 62 60 70 86 93 72 62 52 51 56 58 61 46 52 71 65 61 49 47 47 41 30 26 20 20 29 32 12 2 0 0 1 2 1 
118 89 73 76 79 94 101 85 75 63 57 58 54 62 48 53 70 64 64 53 51 52 46 44 34 29 26 28 34 14 3 0 0 0 1 1 
16 13 7 10 8 10 43 26 28 24 66 78 107 116 105 104 119 131 126 113 109 100 93 94 104 94 69 23 9 51 168 43 5 0 1 0 
91 71 60 58 68 91 89 67 59 52 53 54 59 56 43 50 70 69 62 53 51 45 41 30 27 23 17 30 32 15 3 0 0 1 2 1 
118 95 71 72 79 96 105 85 79 64 59 61 57 61 45 52 69 68 69 53 49 52 48 46 32 30 26 25 34 18 4 0 0 0 1 4 
17 14 8 10 10 13 39 22 22 25 67 80 111 116 103 98 107 131 127 115 110 100 96 96 104 96 77 29 11 45 156 53 6 0 1 1 
94 74 58 58 69 98 81 68 57 51 55 55 60 53 42 51 73 76 66 59 52 46 40 31 27 25 16 29 32 16 3 0 0 1 2 1 
115 97 66 68 83 98 100 85 80 67 59 60 58 58 45 55 66 73 73 56 47 54 53 46 33 28 26 24 33 24 5 0 0 0 2 5 
17 15 8 11 16 19 32 17 17 24 72 84 109 114 103 93 100 132 128 118 112 104 98 98 105 100 80 33 10 36 138 67 8 0 2 4 
99 75 59 58 71 102 78 74 59 52 53 53 59 50 44 55 75 82 71 66 53 45 41 34 28 24 18 27 32 20 3 0 0 0 2 2 
114 96 68 69 84 102 96 88 79 69 59 60 60 55 44 52 64 78 78 57 51 62 54 45 33 31 24 25 32 27 5 0 0 0 3 6 
16 15 8 16 25 29 23 15 15 24 74 88 107 112 103 87 91 130 127 119 113 106 103 98 99 103 87 35 9 26 127 82 9 0 2 7 
97 76 63 58 77 101 79 75 60 53 53 51 56 46 45 56 75 85 77 67 50 45 44 39 30 20 22 28 31 23 4 0 0 0 3 4 
115 93 71 72 88 105 93 86 79 70 59 57 57 53 43 53 62 80 80 66 56 68 58 41 34 34 24 24 30 31 6 1 0 0 4 7 
16 16 10 24 40 38 18 13 16 23 75 88 104 108 101 86 82 124 124 125 113 109 101 94 97 106 90 38 9 19 114 102 11 0 3 9 
98 80 67 61 74 96 80 76 62 54 52 48 50 44 45 56 67 84 76 62 45 49 50 41 31 20 23 26 29 24 5 0 0 0 3 7 
119 90 77 74 90 102 91 86 79 70 61 56 55 50 44 53 66 83 83 71 62 68 60 39 37 39 26 24 27 32 7 1 0 0 5 9 
16 17 15 29 55 40 19 13 17 25 75 88 99 105 102 80 72 116 126 130 114 115 101 97 98 104 89 43 8 14 104 119 13 0 4 10 
95 83 71 65 71 93 79 79 65 53 49 43 48 42 46 53 56 80 76 56 43 51 53 45 33 22 23 25 30 27 5 0 0 0 2 8 
123 93 81 79 97 99 89 87 79 71 63 56 50 48 46 54 67 80 86 75 61 72 63 39 41 40 27 25 27 32 9 1 0 0 7 12 
16 19 20 35 58 33 20 13 18 25 74 88 99 98 104 80 66 108 126 129 115 115 101 99 104 99 87 48 9 10 92 130 16 0 5 10 
92 88 75 69 69 86 81 80 66 52 49 43 44 39 45 50 48 73 79 56 42 53 59 48 37 26 24 23 29 30 6 0 0 0 1 9 
119 97 82 85 93 98 90 88 81 74 65 57 46 48 45 57 63 71 84 77 59 68 66 42 45 40 29 25 27 32 9 2 0 0 10 11 
18 23 29 43 48 22 20 15 18 26 76 84 95 97 101 79 65 101 126 131 115 116 104 103 108 92 86 54 10 8 82 140 17 0 6 11 
97 91 74 65 64 80 82 81 69 53 48 42 40 37 43 47 41 69 80 58 49 58 63 53 41 28 26 23 30 29 7 0 0 0 1 11 
113 103 84 91 84 94 89 90 85 76 66 58 40 46 45 57 57 61 80 76 60 62 67 48 48 40 31 24 26 30 10 2 0 0 17 15 
21 28 33 46 38 13 15 17 18 28 76 81 94 92 99 80 67 89 127 130 118 118 107 106 109 87 88 58 11 6 79 147 21 0 6 11 
99 89 74 60 64 78 80 81 67 54 46 39 37 36 40 41 41 67 86 61 55 60 63 54 43 29 28 22 29 28 7 1 0 0 1 11 
101 98 86 89 78 90 89 94 87 76 65 56 36 44 44 53 50 50 75 76 62 57 69 51 48 39 34 24 26 28 11 2 0 1 32 28 
24 30 29 43 34 7 10 18 18 30 73 73 93 89 93 80 69 83 130 129 123 117 110 113 107 86 89 62 14 7 75 148 23 1 8 13 
93 86 77 63 65 75 81 81 67 53 45 38 36 34 38 40 45 69 87 67 58 59 59 50 39 30 28 24 28 26 9 1 0 0 2 14 
