P2
36 180
255
16 9 8 15 16 29 46 38 58 28 24 28 40 46 53 46 45 49 46 48 45 42 40 33 28 25 20 17 19 23 9 1 0 0 0 1 
16 9 8 15 16 29 46 38 58 28 24 28 40 46 53 46 45 49 46 48 45 42 40 33 28 25 20 17 19 23 9 1 0 0 0 1 
16 9 8 15 16 29 46 38 58 28 24 28 40 46 53 46 45 49 46 48 45 42 40 33 28 25 20 17 19 23 9 1 0 0 0 1 
16 8 8 14 19 29 44 38 59 27 25 27 40 46 53 46 46 49 47 47 43 43 41 33 27 25 21 18 19 23 9 1 0 0 0 1 
16 8 8 14 19 29 44 38 59 27 25 27 40 46 53 46 46 49 47 47 43 43 41 33 27 25 21 18 19 23 9 1 0 0 0 1 
16 8 8 14 19 29 44 38 59 27 25 27 40 46 53 46 46 49 47 47 43 43 41 33 27 25 21 18 19 23 9 1 0 0 0 1 
16 8 9 14 22 29 41 39 60 28 25 27 41 48 54 47 46 49 47 46 40 43 40 31 26 25 21 19 20 22 9 2 0 0 1 1 
16 8 9 14 22 29 41 39 60 28 25 27 41 48 54 47 46 49 47 46 40 43 40 31 26 25 21 19 20 22 9 2 0 0 1 1 
16 8 9 14 22 29 41 39 60 28 25 27 41 48 54 47 46 49 47 46 40 43 40 31 26 25 21 19 20 22 9 2 0 0 1 1 
16 8 8 16 26 31 40 38 60 32 24 27 42 48 56 49 47 50 49 47 39 42 39 31 26 24 19 19 21 20 9 2 0 0 1 1 
16 8 8 16 26 31 40 38 60 32 24 27 42 48 56 49 47 50 49 47 39 42 39 31 26 24 19 19 21 20 9 2 0 0 1 1 
16 8 8 16 26 31 40 38 60 32 24 27 42 48 56 49 47 50 49 47 39 42 39 31 26 24 19 19 21 20 9 2 0 0 1 1 
17 8 8 18 30 33 39 37 59 37 23 29 42 48 55 50 50 50 52 47 38 40 37 31 27 22 18 19 21 18 9 2 0 0 1 1 
17 8 8 18 30 33 39 37 59 37 23 29 42 48 55 50 50 50 52 47 38 40 37 31 27 22 18 19 21 18 9 2 0 0 1 1 
17 8 8 18 30 33 39 37 59 37 23 29 42 48 55 50 50 50 52 47 38 40 37 31 27 22 18 19 21 18 9 2 0 0 1 1 
20 10 9 19 35 35 40 40 56 42 23 32 43 50 55 51 50 50 52 47 38 39 36 32 28 21 19 19 19 17 10 2 0 0 1 1 
20 10 9 19 35 35 40 40 56 42 23 32 43 50 55 51 50 50 52 47 38 39 36 32 28 21 19 19 19 17 10 2 0 0 1 1 
20 10 9 19 35 35 40 40 56 42 23 32 43 50 55 51 50 50 52 47 38 39 36 32 28 21 19 19 19 17 10 2 0 0 1 1 
26 14 11 20 39 38 42 43 54 46 22 32 43 49 55 52 50 50 54 48 38 40 35 33 29 18 18 17 16 14 11 2 0 0 1 1 
26 14 11 20 39 38 42 43 54 46 22 32 43 49 55 52 50 50 54 48 38 40 35 33 29 18 18 17 16 14 11 2 0 0 1 1 
26 14 11 20 39 38 42 43 54 46 22 32 43 49 55 52 50 50 54 48 38 40 35 33 29 18 18 17 16 14 11 2 0 0 1 1 
31 18 14 22 41 41 44 46 54 51 19 32 44 50 53 53 54 50 55 47 39 39 36 33 28 16 17 17 17 11 12 2 0 0 1 1 
31 18 14 22 41 41 44 46 54 51 19 32 44 50 53 53 54 50 55 47 39 39 36 33 28 16 17 17 17 11 12 2 0 0 1 1 
31 18 14 22 41 41 44 46 54 51 19 32 44 50 53 53 54 50 55 47 39 39 36 33 28 16 17 17 17 11 12 2 0 0 1 1 
36 24 19 27 44 44 47 52 59 51 18 33 45 49 53 54 56 52 56 47 41 40 34 33 26 16 17 17 19 10 13 3 0 0 1 1 
36 24 19 27 44 44 47 52 59 51 18 33 45 49 53 54 56 52 56 47 41 40 34 33 26 16 17 17 19 10 13 3 0 0 1 1 
36 24 19 27 44 44 47 52 59 51 18 33 45 49 53 54 56 52 56 47 41 40 34 33 26 16 17 17 19 10 13 3 0 0 1 1 
42 30 23 30 45 46 48 55 64 50 19 33 47 50 53 54 55 52 56 47 42 40 36 34 25 18 19 20 21 11 12 3 0 0 1 1 
42 30 23 30 45 46 48 55 64 50 19 33 47 50 53 54 55 52 56 47 42 40 36 34 25 18 19 20 21 11 12 3 0 0 1 1 
42 30 23 30 45 46 48 55 64 50 19 33 47 50 53 54 55 52 56 47 42 40 36 34 25 18 19 20 21 11 12 3 0 0 1 1 
45 35 25 33 46 47 40 51 67 46 21 33 48 49 52 53 54 52 56 48 44 41 38 33 24 20 22 20 20 12 10 3 0 0 1 1 
45 35 25 33 46 47 40 51 67 46 21 33 48 49 52 53 54 52 56 48 44 41 38 33 24 20 22 20 20 12 10 3 0 0 1 1 
45 35 25 33 46 47 40 51 67 46 21 33 48 49 52 53 54 52 56 48 44 41 38 33 24 20 22 20 20 12 10 3 0 0 1 1 
47 37 28 32 44 46 36 46 62 38 24 34 49 49 50 52 52 51 55 49 46 41 38 33 26 23 23 21 19 13 8 3 0 0 1 1 
47 37 28 32 44 46 36 46 62 38 24 34 49 49 50 52 52 51 55 49 46 41 38 33 26 23 23 21 19 13 8 3 0 0 1 1 
47 37 28 32 44 46 36 46 62 38 24 34 49 49 50 52 52 51 55 49 46 41 38 33 26 23 23 21 19 13 8 3 0 0 1 1 
47 40 30 31 42 46 36 46 50 33 29 38 51 50 49 51 50 50 53 49 46 42 40 34 28 24 24 21 17 12 8 4 0 0 1 1 
47 40 30 31 42 46 36 46 50 33 29 38 51 50 49 51 50 50 53 49 46 42 40 34 28 24 24 21 17 12 8 4 0 0 1 1 
47 40 30 31 42 46 36 46 50 33 29 38 51 50 49 51 50 50 53 49 46 42 40 34 28 24 24 21 17 12 8 4 0 0 1 1 
48 42 33 31 41 46 38 49 41 31 35 41 53 52 47 53 51 50 53 50 47 43 40 35 30 25 24 20 15 12 10 4 1 0 1 1 
48 42 33 31 41 46 38 49 41 31 35 41 53 52 47 53 51 50 53 50 47 43 40 35 30 25 24 20 15 12 10 4 1 0 1 1 
48 42 33 31 41 46 38 49 41 31 35 41 53 52 47 53 51 50 53 50 47 43 40 35 30 25 24 20 15 12 10 4 1 0 1 1 
51 44 35 32 41 45 46 53 41 32 39 46 57 54 47 53 52 50 54 49 47 43 40 36 31 26 23 20 13 12 12 4 1 0 1 1 
51 44 35 32 41 45 46 53 41 32 39 46 57 54 47 53 52 50 54 49 47 43 40 36 31 26 23 20 13 12 12 4 1 0 1 1 
51 44 35 32 41 45 46 53 41 32 39 46 57 54 47 53 52 50 54 49 47 43 40 36 31 26 23 20 13 12 12 4 1 0 1 1 
56 47 37 33 40 43 46 49 38 34 40 48 57 55 48 53 50 51 55 49 46 42 39 37 32 27 23 19 12 11 11 5 1 0 1 1 
56 47 37 33 40 43 46 49 38 34 40 48 57 55 48 53 50 51 55 49 46 42 39 37 32 27 23 19 12 11 11 5 1 0 1 1 
56 47 37 33 40 43 46 49 38 34 40 48 57 55 48 53 50 51 55 49 46 42 39 37 32 27 23 19 12 11 11 5 1 0 1 1 
60 51 40 33 37 36 36 36 35 34 39 49 56 53 48 52 50 49 52 49 44 42 37 37 33 29 22 17 11 11 12 6 1 0 1 1 
60 51 40 33 37 36 36 36 35 34 39 49 56 53 48 52 50 49 52 49 44 42 37 37 33 29 22 17 11 11 12 6 1 0 1 1 
60 51 40 33 37 36 36 36 35 34 39 49 56 53 48 52 50 49 52 49 44 42 37 37 33 29 22 17 11 11 12 6 1 0 1 1 
60 54 42 34 33 32 29 30 33 35 39 50 55 50 47 51 48 50 51 50 44 41 37 35 32 28 21 14 11 11 12 6 1 0 1 1 
60 54 42 34 33 32 29 30 33 35 39 50 55 50 47 51 48 50 51 50 44 41 37 35 32 28 21 14 11 11 12 6 1 0 1 1 
60 54 42 34 33 32 29 30 33 35 39 50 55 50 47 51 48 50 51 50 44 41 37 35 32 28 21 14 11 11 12 6 1 0 1 1 
62 56 44 36 34 30 27 28 31 35 38 50 52 49 45 50 48 49 50 50 44 41 35 35 32 27 20 11 10 10 12 7 1 0 0 1 
62 56 44 36 34 30 27 28 31 35 38 50 52 49 45 50 48 49 50 50 44 41 35 35 32 27 20 11 10 10 12 7 1 0 0 1 
62 56 44 36 34 30 27 28 31 35 38 50 52 49 45 50 48 49 50 50 44 41 35 35 32 27 20 11 10 10 12 7 1 0 0 1 
64 58 46 37 34 30 28 29 30 36 37 48 48 47 46 48 48 49 50 49 43 41 35 34 32 25 21 9 9 10 12 8 1 0 1 1 
64 58 46 37 34 30 28 29 30 36 37 48 48 47 46 48 48 49 50 49 43 41 35 34 32 25 21 9 9 10 12 8 1 0 1 1 
64 58 46 37 34 30 28 29 30 36 37 48 48 47 46 48 48 49 50 49 43 41 35 34 32 25 21 9 9 10 12 8 1 0 1 1 
66 61 47 37 34 32 30 30 30 36 36 46 43 47 47 49 47 50 49 49 42 40 35 33 31 23 22 9 8 10 12 8 1 0 1 1 
66 61 47 37 34 32 30 30 30 36 36 46 43 47 47 49 47 50 49 49 42 40 35 33 31 23 22 9 8 10 12 8 1 0 1 1 
66 61 47 37 34 32 30 30 30 36 36 46 43 47 47 49 47 50 49 49 42 40 35 33 31 23 22 9 8 10 12 8 1 0 1 1 
69 59 45 37 35 34 32 30 31 33 37 45 40 47 47 50 46 50 48 46 42 39 36 33 30 21 21 9 8 10 12 9 1 0 1 1 
69 59 45 37 35 34 32 30 31 33 37 45 40 47 47 50 46 50 48 46 42 39 36 33 30 21 21 9 8 10 12 9 1 0 1 1 
69 59 45 37 35 34 32 30 31 33 37 45 40 47 47 50 46 50 48 46 42 39 36 33 30 21 21 9 8 10 12 9 1 0 1 1 
67 57 44 38 33 34 33 31 30 32 39 45 38 46 46 48 45 48 45 42 40 38 37 31 29 21 20 8 6 10 12 10 1 0 1 1 
67 57 44 38 33 34 33 31 30 32 39 45 38 46 46 48 45 48 45 42 40 38 37 31 29 21 20 8 6 10 12 10 1 0 1 1 
67 57 44 38 33 34 33 31 30 32 39 45 38 46 46 48 45 48 45 42 40 38 37 31 29 21 20 8 6 10 12 10 1 0 1 1 
64 53 44 38 29 36 34 32 29 31 41 44 39 46 46 47 43 45 42 41 39 36 36 32 27 21 17 10 5 10 12 10 1 0 1 1 
64 53 44 38 29 36 34 32 29 31 41 44 39 46 46 47 43 45 42 41 39 36 36 32 27 21 17 10 5 10 12 10 1 0 1 1 
64 53 44 38 29 36 34 32 29 31 41 44 39 46 46 47 43 45 42 41 39 36 36 32 27 21 17 10 5 10 12 10 1 0 1 1 
58 53 45 37 29 38 35 31 30 30 43 44 40 43 47 45 41 42 39 38 38 35 35 32 26 23 15 11 5 9 12 9 1 0 1 1 
58 53 45 37 29 38 35 31 30 30 43 44 40 43 47 45 41 42 39 38 38 35 35 32 26 23 15 11 5 9 12 9 1 0 1 1 
58 53 45 37 29 38 35 31 30 30 43 44 40 43 47 45 41 42 39 38 38 35 35 32 26 23 15 11 5 9 12 9 1 0 1 1 
58 53 45 36 31 40 35 31 30 30 45 43 38 41 44 43 39 40 37 36 36 34 34 32 25 22 13 11 7 9 11 9 1 0 1 1 
58 53 45 36 31 40 35 31 30 30 45 43 38 41 44 43 39 40 37 36 36 34 34 32 25 22 13 11 7 9 11 9 1 0 1 1 
58 53 45 36 31 40 35 31 30 30 45 43 38 41 44 43 39 40 37 36 36 34 34 32 25 22 13 11 7 9 11 9 1 0 1 1 
57 53 48 37 33 38 34 31 31 31 43 41 36 39 40 41 37 40 35 32 34 32 32 31 24 20 12 11 8 9 11 9 1 0 1 1 
57 53 48 37 33 38 34 31 31 31 43 41 36 39 40 41 37 40 35 32 34 32 32 31 24 20 12 11 8 9 11 9 1 0 1 1 
57 53 48 37 33 38 34 31 31 31 43 41 36 39 40 41 37 40 35 32 34 32 32 31 24 20 12 11 8 9 11 9 1 0 1 1 
56 52 51 42 36 36 32 29 26 34 43 38 34 38 36 38 36 39 33 30 31 31 30 30 23 18 11 10 8 9 11 9 1 0 1 1 
56 52 51 42 36 36 32 29 26 34 43 38 34 38 36 38 36 39 33 30 31 31 30 30 23 18 11 10 8 9 11 9 1 0 1 1 
56 52 51 42 36 36 32 29 26 34 43 38 34 38 36 38 36 39 33 30 31 31 30 30 23 18 11 10 8 9 11 9 1 0 1 1 
57 51 50 42 36 31 23 21 22 36 41 36 33 31 33 35 34 36 29 27 28 28 28 28 24 15 10 9 8 9 11 10 1 0 1 1 
57 51 50 42 36 31 23 21 22 36 41 36 33 31 33 35 34 36 29 27 28 28 28 28 24 15 10 9 8 9 11 10 1 0 1 1 
57 51 50 42 36 31 23 21 22 36 41 36 33 31 33 35 34 36 29 27 28 28 28 28 24 15 10 9 8 9 11 10 1 0 1 1 
61 54 46 39 37 23 16 14 23 37 38 34 31 27 29 31 32 33 25 24 24 25 25 24 25 13 9 7 8 10 11 10 1 0 1 1 
61 54 46 39 37 23 16 14 23 37 38 34 31 27 29 31 32 33 25 24 24 25 25 24 25 13 9 7 8 10 11 10 1 0 1 1 
61 54 46 39 37 23 16 14 23 37 38 34 31 27 29 31 32 33 25 24 24 25 25 24 25 13 9 7 8 10 11 10 1 0 1 1 
57 53 42 40 35 20 12 12 23 39 37 34 30 26 27 31 31 30 23 23 21 22 22 22 23 11 9 6 9 10 11 10 1 0 1 1 
57 53 42 40 35 20 12 12 23 39 37 34 30 26 27 31 31 30 23 23 21 22 22 22 23 11 9 6 9 10 11 10 1 0 1 1 
57 53 42 40 35 20 12 12 23 39 37 34 30 26 27 31 31 30 23 23 21 22 22 22 23 11 9 6 9 10 11 10 1 0 1 1 
48 47 46 39 29 25 15 14 21 37 39 35 30 28 29 33 31 31 25 27 21 22 22 23 22 11 8 7 9 10 11 10 1 0 1 1 
48 47 46 39 29 25 15 14 21 37 39 35 30 28 29 33 31 31 25 27 21 22 22 23 22 11 8 7 9 10 11 10 1 0 1 1 
48 47 46 39 29 25 15 14 21 37 39 35 30 28 29 33 31 31 25 27 21 22 22 23 22 11 8 7 9 10 11 10 1 0 1 1 
42 41 45 32 26 30 23 20 21 33 40 37 32 31 33 35 35 35 29 29 25 24 25 25 22 14 9 7 9 10 12 10 1 0 1 1 
42 41 45 32 26 30 23 20 21 33 40 37 32 31 33 35 35 35 29 29 25 24 25 25 22 14 9 7 9 10 12 10 1 0 1 1 
42 41 45 32 26 30 23 20 21 33 40 37 32 31 33 35 35 35 29 29 25 24 25 25 22 14 9 7 9 10 12 10 1 0 1 1 
41 37 39 30 25 32 27 22 22 31 39 38 33 34 35 38 36 35 32 31 31 27 28 28 22 18 12 7 9 10 12 10 1 0 1 1 
41 37 39 30 25 32 27 22 22 31 39 38 33 34 35 38 36 35 32 31 31 27 28 28 22 18 12 7 9 10 12 10 1 0 1 1 
41 37 39 30 25 32 27 22 22 31 39 38 33 34 35 38 36 35 32 31 31 27 28 28 22 18 12 7 9 10 12 10 1 0 1 1 
41 38 35 29 25 35 30 23 22 31 41 39 34 36 37 38 36 34 34 34 33 30 30 29 22 22 13 7 8 10 12 10 1 0 1 1 
41 38 35 29 25 35 30 23 22 31 41 39 34 36 37 38 36 34 34 34 33 30 30 29 22 22 13 7 8 10 12 10 1 0 1 1 
41 38 35 29 25 35 30 23 22 31 41 39 34 36 37 38 36 34 34 34 33 30 30 29 22 22 13 7 8 10 12 10 1 0 1 1 
45 41 35 30 27 33 33 26 23 30 41 40 36 40 40 38 38 35 36 37 34 32 33 29 22 23 16 9 8 10 12 10 1 0 1 1 
45 41 35 30 27 33 33 26 23 30 41 40 36 40 40 38 38 35 36 37 34 32 33 29 22 23 16 9 8 10 12 10 1 0 1 1 
45 41 35 30 27 33 33 26 23 30 41 40 36 40 40 38 38 35 36 37 34 32 33 29 22 23 16 9 8 10 12 10 1 0 1 1 
48 46 38 32 29 31 33 29 24 29 40 39 37 44 41 39 40 38 38 40 36 35 35 28 24 23 19 10 8 10 13 10 1 0 1 1 
48 46 38 32 29 31 33 29 24 29 40 39 37 44 41 39 40 38 38 40 36 35 35 28 24 23 19 10 8 10 13 10 1 0 1 1 
48 46 38 32 29 31 33 29 24 29 40 39 37 44 41 39 40 38 38 40 36 35 35 28 24 23 19 10 8 10 13 10 1 0 1 1 
55 52 40 32 29 32 32 32 26 31 38 39 40 46 44 42 42 42 41 42 37 37 37 30 27 26 23 11 9 11 13 9 1 0 1 1 
55 52 40 32 29 32 32 32 26 31 38 39 40 46 44 42 42 42 41 42 37 37 37 30 27 26 23 11 9 11 13 9 1 0 1 1 
55 52 40 32 29 32 32 32 26 31 38 39 40 46 44 42 42 42 41 42 37 37 37 30 27 26 23 11 9 11 13 9 1 0 1 1 
63 58 42 31 28 32 31 34 28 32 35 38 42 47 46 45 44 45 44 44 39 39 39 33 28 29 24 12 9 11 13 9 1 0 1 1 
63 58 42 31 28 32 31 34 28 32 35 38 42 47 46 45 44 45 44 44 39 39 39 33 28 29 24 12 9 11 13 9 1 0 1 1 
63 58 42 31 28 32 31 34 28 32 35 38 42 47 46 45 44 45 44 44 39 39 39 33 28 29 24 12 9 11 13 9 1 0 1 1 
64 62 43 28 27 34 31 32 31 33 32 38 44 48 47 47 45 46 46 45 40 42 41 34 29 29 23 13 9 11 14 8 1 0 0 1 
64 62 43 28 27 34 31 32 31 33 32 38 44 48 47 47 45 46 46 45 40 42 41 34 29 29 23 13 9 11 14 8 1 0 0 1 
64 62 43 28 27 34 31 32 31 33 32 38 44 48 47 47 45 46 46 45 40 42 41 34 29 29 23 13 9 11 14 8 1 0 0 1 
64 58 43 28 26 35 32 31 33 35 33 38 45 52 47 50 46 47 48 46 43 45 42 35 30 28 22 14 10 11 14 8 1 0 1 1 
64 58 43 28 26 35 32 31 33 35 33 38 45 52 47 50 46 47 48 46 43 45 42 35 30 28 22 14 10 11 14 8 1 0 1 1 
64 58 43 28 26 35 32 31 33 35 33 38 45 52 47 50 46 47 48 46 43 45 42 35 30 28 22 14 10 11 14 8 1 0 1 1 
62 54 42 31 30 37 34 29 31 37 35 39 47 52 49 53 48 47 49 48 48 49 41 35 31 27 22 16 10 11 14 7 1 0 1 1 
62 54 42 31 30 37 34 29 31 37 35 39 47 52 49 53 48 47 49 48 48 49 41 35 31 27 22 16 10 11 14 7 1 0 1 1 
62 54 42 31 30 37 34 29 31 37 35 39 47 52 49 53 48 47 49 48 48 49 41 35 31 27 22 16 10 11 14 7 1 0 1 1 
61 50 39 32 38 41 42 31 31 36 37 42 50 53 49 53 50 47 51 50 52 51 41 36 32 25 21 18 10 11 14 7 1 0 0 1 
61 50 39 32 38 41 42 31 31 36 37 42 50 53 49 53 50 47 51 50 52 51 41 36 32 25 21 18 10 11 14 7 1 0 0 1 
61 50 39 32 38 41 42 31 31 36 37 42 50 53 49 53 50 47 51 50 52 51 41 36 32 25 21 18 10 11 14 7 1 0 0 1 
59 47 38 32 44 47 51 39 32 35 40 45 50 54 49 54 54 47 54 51 53 50 42 37 32 24 20 19 11 12 14 6 1 0 1 1 
59 47 38 32 44 47 51 39 32 35 40 45 50 54 49 54 54 47 54 51 53 50 42 37 32 24 20 19 11 12 14 6 1 0 1 1 
59 47 38 32 44 47 51 39 32 35 40 45 50 54 49 54 54 47 54 51 53 50 42 37 32 24 20 19 11 12 14 6 1 0 1 1 
55 45 37 32 46 48 53 52 31 34 40 45 50 56 51 55 54 48 56 53 53 49 42 38 32 24 20 17 12 12 14 6 0 0 1 1 
55 45 37 32 46 48 53 52 31 34 40 45 50 56 51 55 54 48 56 53 53 49 42 38 32 24 20 17 12 12 14 6 0 0 1 1 
55 45 37 32 46 48 53 52 31 34 40 45 50 56 51 55 54 48 56 53 53 49 42 38 32 24 20 17 12 12 14 6 0 0 1 1 
51 43 36 32 46 50 44 48 30 33 37 44 50 56 52 54 55 50 57 53 52 49 44 39 32 24 20 17 13 13 15 6 0 0 1 1 
51 43 36 32 46 50 44 48 30 33 37 44 50 56 52 54 55 50 57 53 52 49 44 39 32 24 20 17 13 13 15 6 0 0 1 1 
51 43 36 32 46 50 44 48 30 33 37 44 50 56 52 54 55 50 57 53 52 49 44 39 32 24 20 17 13 13 15 6 0 0 1 1 
51 41 33 33 49 48 36 40 33 32 35 43 49 56 53 53 56 54 59 50 50 49 43 38 32 24 21 18 15 13 15 5 0 0 0 1 
51 41 33 33 49 48 36 40 33 32 35 43 49 56 53 53 56 54 59 50 50 49 43 38 32 24 21 18 15 13 15 5 0 0 0 1 
51 41 33 33 49 48 36 40 33 32 35 43 49 56 53 53 56 54 59 50 50 49 43 38 32 24 21 18 15 13 15 5 0 0 0 1 
51 40 30 31 52 47 35 39 42 33 32 42 50 57 55 54 55 56 58 49 48 46 41 36 32 24 21 18 17 13 15 4 0 0 1 1 
51 40 30 31 52 47 35 39 42 33 32 42 50 57 55 54 55 56 58 49 48 46 41 36 32 24 21 18 17 13 15 4 0 0 1 1 
51 40 30 31 52 47 35 39 42 33 32 42 50 57 55 54 55 56 58 49 48 46 41 36 32 24 21 18 17 13 15 4 0 0 1 1 
46 35 25 30 52 47 41 45 56 34 27 39 50 57 55 52 55 55 55 48 46 44 40 34 32 24 21 19 18 13 15 4 0 0 0 1 
46 35 25 30 52 47 41 45 56 34 27 39 50 57 55 52 55 55 55 48 46 44 40 34 32 24 21 19 18 13 15 4 0 0 0 1 
46 35 25 30 52 47 41 45 56 34 27 39 50 57 55 52 55 55 55 48 46 44 40 34 32 24 21 19 18 13 15 4 0 0 0 1 
41 28 21 27 50 46 49 52 61 36 24 34 48 55 55 51 54 52 53 47 44 42 38 32 32 24 21 19 19 14 15 3 0 0 1 1 
41 28 21 27 50 46 49 52 61 36 24 34 48 55 55 51 54 52 53 47 44 42 38 32 32 24 21 19 19 14 15 3 0 0 1 1 
41 28 21 27 50 46 49 52 61 36 24 34 48 55 55 51 54 52 53 47 44 42 38 32 32 24 21 19 19 14 15 3 0 0 1 1 
36 23 16 24 48 44 52 51 60 39 22 31 46 54 54 51 53 52 51 46 43 40 36 31 32 22 20 18 19 15 14 3 0 0 1 1 
36 23 16 24 48 44 52 51 60 39 22 31 46 54 54 51 53 52 51 46 43 40 36 31 32 22 20 18 19 15 14 3 0 0 1 1 
36 23 16 24 48 44 52 51 60 39 22 31 46 54 54 51 53 52 51 46 43 40 36 31 32 22 20 18 19 15 14 3 0 0 1 1 
34 19 12 21 44 40 47 45 55 44 20 28 44 54 52 54 52 51 49 47 43 39 36 31 30 21 19 19 20 16 14 3 0 0 1 1 
34 19 12 21 44 40 47 45 55 44 20 28 44 54 52 54 52 51 49 47 43 39 36 31 30 21 19 19 20 16 14 3 0 0 1 1 
34 19 12 21 44 40 47 45 55 44 20 28 44 54 52 54 52 51 49 47 43 39 36 31 30 21 19 19 20 16 14 3 0 0 1 1 
31 15 9 17 39 37 44 41 54 46 20 27 41 53 52 54 54 52 50 48 44 40 36 31 29 20 18 18 21 17 14 2 0 0 1 1 
31 15 9 17 39 37 44 41 54 46 20 27 41 53 52 54 54 52 50 48 44 40 36 31 29 20 18 18 21 17 14 2 0 0 1 1 
31 15 9 17 39 37 44 41 54 46 20 27 41 53 52 54 54 52 50 48 44 40 36 31 29 20 18 18 21 17 14 2 0 0 1 1 
25 12 8 15 35 35 43 39 55 46 21 28 39 51 50 53 52 53 51 50 45 39 35 32 28 22 19 18 21 18 13 2 0 0 1 1 
25 12 8 15 35 35 43 39 55 46 21 28 39 51 50 53 52 53 51 50 45 39 35 32 28 22 19 18 21 18 13 2 0 0 1 1 
25 12 8 15 35 35 43 39 55 46 21 28 39 51 50 53 52 53 51 50 45 39 35 32 28 22 19 18 21 18 13 2 0 0 1 1 
21 10 8 14 29 34 44 35 54 43 22 28 39 50 50 53 52 55 51 52 45 38 33 31 27 22 19 17 20 18 12 2 0 0 1 1 
21 10 8 14 29 34 44 35 54 43 22 28 39 50 50 53 52 55 51 52 45 38 33 31 27 22 19 17 20 18 12 2 0 0 1 1 
21 10 8 14 29 34 44 35 54 43 22 28 39 50 50 53 52 55 51 52 45 38 33 31 27 22 19 17 20 18 12 2 0 0 1 1 
20 10 9 16 25 32 45 35 56 39 22 30 40 48 49 51 52 54 50 53 47 36 32 30 26 23 19 16 20 20 11 1 0 0 1 1 
20 10 9 16 25 32 45 35 56 39 22 30 40 48 49 51 52 54 50 53 47 36 32 30 26 23 19 16 20 20 11 1 0 0 1 1 
20 10 9 16 25 32 45 35 56 39 22 30 40 48 49 51 52 54 50 53 47 36 32 30 26 23 19 16 20 20 11 1 0 0 1 1 
19 10 10 20 22 31 46 35 58 31 22 31 42 47 51 50 51 54 50 54 49 37 32 30 25 24 19 17 20 21 10 1 0 0 1 1 
19 10 10 20 22 31 46 35 58 31 22 31 42 47 51 50 51 54 50 54 49 37 32 30 25 24 19 17 20 21 10 1 0 0 1 1 
19 10 10 20 22 31 46 35 58 31 22 31 42 47 51 50 51 54 50 54 49 37 32 30 25 24 19 17 20 21 10 1 0 0 1 1 
18 10 10 24 19 31 47 35 57 28 22 31 42 47 51 49 50 52 49 53 51 37 31 30 26 25 20 16 19 22 9 1 0 0 1 1 
18 10 10 24 19 31 47 35 57 28 22 31 42 47 51 49 50 52 49 53 51 37 31 30 26 25 20 16 19 22 9 1 0 0 1 1 
18 10 10 24 19 31 47 35 57 28 22 31 42 47 51 49 50 52 49 53 51 37 31 30 26 25 20 16 19 22 9 1 0 0 1 1 
18 10 9 22 16 28 47 38 58 27 21 30 42 46 52 48 49 51 48 52 49 38 34 32 27 25 20 16 19 22 9 1 0 0 1 1 
18 10 9 22 16 28 47 38 58 27 21 30 42 46 52 48 49 51 48 52 49 38 34 32 27 25 20 16 19 22 9 1 0 0 1 1 
18 10 9 22 16 28 47 38 58 27 21 30 42 46 52 48 49 51 48 52 49 38 34 32 27 25 20 16 19 22 9 1 0 0 1 1 
16 10 9 18 15 26 47 39 58 28 22 29 41 45 52 47 46 49 48 48 47 41 37 33 27 24 20 17 19 22 9 1 0 0 0 1 
16 10 9 18 15 26 47 39 58 28 22 29 41 45 52 47 46 49 48 48 47 41 37 33 27 24 20 17 19 22 9 1 0 0 0 1 
16 10 9 18 15 26 47 39 58 28 22 29 41 45 52 47 46 49 48 48 47 41 37 33 27 24 20 17 19 22 9 1 0 0 0 1 
