P2
500 3
255
15 15 15 14 14 14 14 14 14 15 14 14 14 14 14 15 14 14 15 15 15 15 14 14 14 14 13 12 13 14 13 13 13 13 13 14 13 13 13 13 13 14 14 14 14 13 13 14 14 14 13 13 14 14 14 15 15 15 15 15 16 15 15 16 16 16 16 16 16 17 18 17 17 17 16 16 16 16 16 17 18 17 17 17 17 17 17 17 17 17 17 17 17 17 17 17 17 17 18 18 18 18 18 18 19 18 18 18 17 17 17 18 18 18 19 19 19 19 19 19 19 19 19 19 19 19 19 20 19 19 20 20 21 20 19 20 20 20 20 20 20 21 21 21 21 21 21 20 20 20 20 21 21 21 21 21 22 23 22 23 22 23 23 23 23 23 23 23 23 24 24 23 23 24 24 24 25 25 24 23 24 23 22 22 22 22 22 22 22 22 21 22 22 22 22 23 22 22 22 23 23 24 24 24 24 24 24 25 25 26 26 26 26 26 26 26 26 26 26 26 27 26 26 26 26 26 26 25 25 25 24 25 25 25 26 26 26 26 26 26 26 26 26 26 27 28 27 26 25 26 26 26 26 25 25 26 27 28 28 26 26 27 26 27 27 28 28 28 28 27 27 27 26 26 26 26 25 25 25 25 27 26 26 25 26 26 26 26 26 26 26 25 25 25 24 25 26 26 26 26 25 25 25 26 25 25 26 20 26 26 25 25 27 25 27 27 28 27 24 29 21 20 27 23 25 29 29 26 17 18 25 22 26 27 23 28 25 15 22 20 23 28 19 27 22 17 25 23 23 25 13 20 20 20 24 13 17 23 15 21 20 16 20 16 18 23 10 29 27 26 19 14 16 22 21 20 17 8 15 16 19 22 17 23 18 14 21 19 20 19 16 20 16 7 18 14 18 21 17 22 20 14 19 18 17 22 16 19 17 8 21 24 23 18 9 18 14 7 19 17 17 14 17 18 21 18 10 17 17 19 16 21 20 20 21 16 20 17 14 19 18 15 19 14 15 22 21 22 24 19 22 15 15 18 16 20 17 9 19 19 20 20 22 22 21 19 20 20 20 21 20 20 20 14 19 16 16 23 17 16 18 15 17 16 14 22 14 17 17 16 19 15 18 15 18 19 18 17 25 210 
15 15 15 14 14 14 14 14 14 15 14 14 14 14 14 15 14 14 15 15 15 15 14 14 14 14 13 12 13 14 13 13 13 13 13 14 13 13 13 13 13 14 14 14 14 13 13 14 14 14 13 13 14 14 14 15 15 15 15 15 16 15 15 16 16 16 16 16 16 17 18 17 17 17 16 16 16 16 16 17 18 17 17 17 17 17 17 17 17 17 17 17 17 17 17 17 17 17 18 18 18 18 18 18 19 18 18 18 17 17 17 18 18 18 19 19 19 19 19 19 19 19 19 19 19 19 19 20 19 19 20 20 21 20 19 20 20 20 20 20 20 21 21 21 21 21 21 20 20 20 20 21 21 21 21 21 22 23 22 23 22 23 23 23 23 23 23 23 23 24 24 23 23 24 24 24 25 25 24 23 24 23 22 22 22 22 22 22 22 22 21 22 22 22 22 23 22 22 22 23 23 24 24 24 24 24 24 25 25 26 26 26 26 26 26 26 26 26 26 26 27 26 26 26 26 26 26 25 25 25 24 25 25 25 26 26 26 26 26 26 26 26 26 26 27 28 27 26 25 26 26 26 26 25 25 26 27 28 28 26 26 27 26 27 27 28 28 28 28 27 27 27 26 26 26 26 25 25 25 25 27 26 26 25 26 26 26 26 26 26 26 25 25 25 24 25 26 26 26 26 25 25 25 26 25 25 26 20 26 26 25 25 27 25 27 27 28 27 24 29 21 20 27 23 25 29 29 26 17 18 25 22 26 27 23 28 25 15 22 20 23 28 19 27 22 17 25 23 23 25 13 20 20 20 24 13 17 23 15 21 20 16 20 16 18 23 10 29 27 26 19 14 16 22 21 20 17 8 15 16 19 22 17 23 18 14 21 19 20 19 16 20 16 7 18 14 18 21 17 22 20 14 19 18 17 22 16 19 17 8 21 24 23 18 9 18 14 7 19 17 17 14 17 18 21 18 10 17 17 19 16 21 20 20 21 16 20 17 14 19 18 15 19 14 15 22 21 22 24 19 22 15 15 18 16 20 17 9 19 19 20 20 22 22 21 19 20 20 20 21 20 20 20 14 19 16 16 23 17 16 18 15 17 16 14 22 14 17 17 16 19 15 18 15 18 19 18 17 25 210 
15 15 15 14 14 14 14 14 14 15 14 14 14 14 14 15 14 14 15 15 15 15 14 14 14 14 13 12 13 14 13 13 13 13 13 14 13 13 13 13 13 14 14 14 14 13 13 14 14 14 13 13 14 14 14 15 15 15 15 15 16 15 15 16 16 16 16 16 16 17 18 17 17 17 16 16 16 16 16 17 18 17 17 17 17 17 17 17 17 17 17 17 17 17 17 17 17 17 18 18 18 18 18 18 19 18 18 18 17 17 17 18 18 18 19 19 19 19 19 19 19 19 19 19 19 19 19 20 19 19 20 20 21 20 19 20 20 20 20 20 20 21 21 21 21 21 21 20 20 20 20 21 21 21 21 21 22 23 22 23 22 23 23 23 23 23 23 23 23 24 24 23 23 24 24 24 25 25 24 23 24 23 22 22 22 22 22 22 22 22 21 22 22 22 22 23 22 22 22 23 23 24 24 24 24 24 24 25 25 26 26 26 26 26 26 26 26 26 26 26 27 26 26 26 26 26 26 25 25 25 24 25 25 25 26 26 26 26 26 26 26 26 26 26 27 28 27 26 25 26 26 26 26 25 25 26 27 28 28 26 26 27 26 27 27 28 28 28 28 27 27 27 26 26 26 26 25 25 25 25 27 26 26 25 26 26 26 26 26 26 26 25 25 25 24 25 26 26 26 26 25 25 25 26 25 25 26 20 26 26 25 25 27 25 27 27 28 27 24 29 21 20 27 23 25 29 29 26 17 18 25 22 26 27 23 28 25 15 22 20 23 28 19 27 22 17 25 23 23 25 13 20 20 20 24 13 17 23 15 21 20 16 20 16 18 23 10 29 27 26 19 14 16 22 21 20 17 8 15 16 19 22 17 23 18 14 21 19 20 19 16 20 16 7 18 14 18 21 17 22 20 14 19 18 17 22 16 19 17 8 21 24 23 18 9 18 14 7 19 17 17 14 17 18 21 18 10 17 17 19 16 21 20 20 21 16 20 17 14 19 18 15 19 14 15 22 21 22 24 19 22 15 15 18 16 20 17 9 19 19 20 20 22 22 21 19 20 20 20 21 20 20 20 14 19 16 16 23 17 16 18 15 17 16 14 22 14 17 17 16 19 15 18 15 18 19 18 17 25 210 
