P2
# Created by GIMP version 2.10.18 PNM plug-in
66 93
255
255
255
255
255
255
255
255
255
255
255
255
255
255
255
255
255
255
255
255
255
255
255
255
255
255
255
255
255
255
255
255
255
255
255
255
255
255
255
255
255
255
255
255
255
255
255
255
255
255
255
255
255
255
255
255
255
255
255
255
255
255
255
255
255
255
255
255
255
255
255
255
255
255
255
255
255
255
255
255
255
255
255
255
255
255
255
255
255
255
255
255
255
255
255
255
255
255
255
255
255
255
255
255
255
255
255
255
255
255
255
255
255
255
255
255
255
255
255
255
255
255
255
255
255
255
255
255
255
255
255
255
255
255
255
255
255
255
255
255
255
255
255
255
255
255
255
255
255
255
255
255
255
255
255
255
255
255
255
255
255
255
255
255
255
255
255
255
255
255
255
255
255
255
255
255
255
255
255
255
255
255
255
255
255
255
255
255
255
255
255
255
255
255
255
255
255
255
255
255
255
255
255
255
255
255
255
255
255
255
255
255
255
255
255
255
255
255
255
255
255
255
255
255
255
255
255
255
255
255
255
255
255
255
255
255
255
240
187
164
232
255
255
255
255
255
255
255
255
255
255
255
255
255
255
255
255
255
255
255
255
255
255
255
255
255
255
255
255
255
255
255
255
255
255
255
255
255
255
255
255
255
255
255
255
255
255
255
255
255
255
255
255
255
255
255
255
255
255
255
255
255
187
138
25
25
23
232
255
255
255
255
255
255
255
255
255
255
255
255
255
255
255
255
255
255
255
255
255
255
255
255
255
255
255
255
255
255
255
255
255
255
255
255
255
255
255
255
255
255
255
255
255
255
255
255
255
255
255
255
255
255
255
255
255
255
255
255
22
25
25
25
28
200
255
255
255
255
255
255
255
255
255
255
255
255
255
255
255
255
255
255
255
255
255
255
255
255
255
255
255
255
255
255
255
255
255
255
255
255
255
255
255
255
255
255
255
255
255
255
255
255
255
255
255
255
255
255
255
255
255
254
231
135
25
25
24
80
191
255
255
255
255
255
255
255
255
255
255
255
255
255
255
255
255
255
255
255
255
255
255
255
255
255
255
255
255
255
255
255
255
255
255
255
255
255
255
255
255
255
255
255
255
255
255
255
255
255
255
255
255
255
255
255
255
255
195
97
21
25
25
143
211
249
255
255
255
255
255
255
255
255
255
255
255
255
255
255
255
255
255
255
255
255
255
255
255
255
255
255
255
255
255
255
255
255
255
255
255
255
255
255
255
255
255
255
255
255
255
255
255
255
255
255
255
255
255
255
255
255
247
149
21
25
25
25
125
255
255
255
255
255
255
255
255
255
255
255
255
255
255
255
255
255
255
255
255
255
255
255
255
255
255
255
255
255
255
255
255
255
255
255
255
255
255
255
255
255
255
255
255
255
255
255
255
255
255
255
255
255
255
161
147
184
213
184
118
25
25
25
25
24
218
255
255
255
255
255
255
255
255
255
255
255
255
255
255
255
255
255
255
255
255
255
255
255
255
255
255
255
255
255
255
255
255
255
255
255
255
255
255
255
255
255
255
255
255
255
255
255
255
255
255
230
203
254
255
25
25
25
25
25
25
25
25
25
125
171
255
255
255
255
255
255
255
255
255
255
255
255
255
255
255
255
255
255
255
255
255
255
255
255
255
255
255
255
255
255
255
255
255
255
255
255
255
255
255
255
255
255
255
255
255
255
255
255
255
255
213
13
25
66
114
25
25
25
25
25
25
25
25
154
251
255
255
255
255
255
255
255
255
255
255
255
255
255
255
255
255
255
255
255
255
255
255
255
255
255
255
255
255
255
255
255
255
255
255
255
255
255
255
255
255
255
255
255
255
255
255
255
255
255
246
171
19
25
25
25
25
25
25
25
25
25
25
25
115
238
255
255
255
255
255
255
255
255
255
255
255
255
255
255
255
255
255
255
255
255
255
255
255
255
255
255
255
255
255
255
255
255
255
255
255
255
255
255
255
255
255
255
255
255
255
255
255
255
255
255
149
25
25
25
25
25
25
25
25
25
25
25
25
72
218
251
255
255
255
255
255
255
255
255
255
255
255
255
255
255
255
255
255
255
255
255
255
255
255
255
255
255
255
255
255
255
255
255
255
255
255
255
255
255
255
255
255
255
255
255
255
255
255
255
255
240
19
25
25
25
25
25
25
25
25
25
25
25
24
182
241
255
255
255
255
255
255
255
255
255
255
255
255
255
255
255
255
255
255
255
255
255
255
255
255
255
255
255
255
255
255
255
255
255
255
255
255
255
255
255
255
255
255
255
255
255
255
255
255
255
255
218
24
25
25
25
25
25
25
25
25
25
25
25
130
229
249
255
255
255
255
255
255
255
255
255
255
255
255
255
255
255
255
255
255
255
255
255
255
255
255
255
255
255
255
255
255
255
255
255
255
255
255
255
255
255
255
255
255
255
255
255
255
255
255
255
255
247
76
25
25
25
25
25
25
25
25
25
25
25
217
231
255
255
255
255
255
255
255
255
255
255
255
255
255
255
255
255
255
255
255
255
255
255
255
255
255
255
255
255
255
255
255
255
255
255
255
255
255
255
255
255
255
255
255
255
255
255
255
255
255
255
255
216
25
25
25
25
25
25
25
25
25
25
25
25
177
234
255
255
255
255
255
255
255
255
255
255
255
255
255
255
255
255
255
255
255
255
255
255
255
255
255
255
255
255
255
255
255
255
255
255
255
255
255
255
255
255
255
255
255
255
255
255
255
255
255
255
255
242
25
25
25
25
25
25
25
25
25
25
25
73
218
248
255
255
255
255
255
255
255
255
255
255
255
255
255
255
255
255
255
255
255
255
255
255
255
255
255
255
255
255
255
255
255
255
255
255
255
255
255
255
255
255
255
255
255
255
255
255
255
255
255
227
179
157
25
25
25
25
25
25
25
25
25
25
25
162
238
255
255
255
255
255
255
255
255
255
255
255
255
255
255
255
255
255
255
255
255
255
255
255
255
255
255
255
255
255
255
255
255
255
255
255
255
255
255
255
255
255
255
255
255
255
255
255
255
255
239
17
25
25
25
25
25
25
25
25
25
25
25
25
23
189
243
239
255
255
255
255
255
255
255
255
255
255
255
255
255
255
255
255
255
255
255
255
255
255
255
255
255
255
255
255
255
255
255
255
255
255
255
255
255
255
255
255
255
255
255
255
255
255
255
254
157
25
25
25
25
25
25
25
25
25
25
25
25
25
156
229
229
229
233
255
255
255
255
255
255
255
255
255
255
255
255
255
255
255
255
255
255
255
255
255
255
255
255
255
255
255
255
255
255
255
255
255
255
255
255
255
255
255
255
255
255
255
255
255
244
125
25
25
25
25
25
25
25
25
25
25
25
23
37
25
202
229
229
229
229
249
255
255
255
255
255
255
255
255
255
255
255
255
255
255
255
255
255
255
255
255
255
255
255
255
255
255
255
255
255
255
255
255
255
255
255
255
255
255
255
255
238
255
254
207
61
25
25
25
25
25
25
25
25
25
25
25
25
146
125
21
203
229
229
229
229
241
255
255
255
255
255
255
255
255
255
255
255
255
255
255
255
255
255
255
255
255
255
255
255
255
255
255
255
255
255
255
255
255
255
255
255
255
255
255
255
255
144
219
250
160
25
25
25
25
25
25
25
25
25
25
25
25
62
218
123
178
229
229
229
229
229
229
244
255
255
255
255
255
255
255
255
255
255
255
255
255
255
255
255
255
255
255
255
255
255
255
255
255
255
255
255
255
255
255
255
255
255
255
255
255
255
255
214
125
201
191
25
25
25
25
25
25
25
25
25
25
25
37
231
229
215
229
229
229
229
229
229
229
229
252
255
255
255
255
255
255
255
255
255
255
255
255
255
255
255
255
255
255
255
255
255
255
255
255
255
255
255
255
255
255
255
255
255
255
255
255
255
255
251
143
0
198
25
25
25
25
25
25
25
25
25
25
22
194
229
229
229
229
229
229
229
229
229
229
229
249
255
255
255
255
255
255
255
255
255
255
255
255
255
255
255
255
255
255
255
255
255
255
255
255
255
255
255
255
255
255
255
255
255
255
255
255
255
255
247
144
77
141
25
25
25
25
25
16
19
25
25
12
117
229
229
229
229
229
229
229
229
229
229
229
235
254
255
255
255
255
255
255
255
255
255
255
255
255
255
255
255
255
255
255
255
255
255
255
255
255
255
255
255
255
255
255
255
255
255
255
255
255
245
254
154
93
25
25
25
25
25
25
22
204
197
171
180
211
221
229
229
229
229
229
229
229
229
229
229
229
241
255
255
255
255
255
255
255
255
255
255
255
255
255
255
255
255
255
255
255
255
255
255
255
255
255
255
255
255
255
255
255
255
255
255
255
255
254
177
171
127
110
24
25
25
25
22
102
189
229
229
229
229
229
229
229
229
229
229
229
229
229
229
229
229
229
236
255
255
255
255
255
255
255
255
255
255
255
255
255
255
255
255
255
255
255
255
255
255
255
255
255
255
255
255
255
255
255
255
255
255
255
255
229
126
127
127
127
90
33
24
33
136
214
229
229
229
229
229
229
229
229
229
229
229
229
229
229
229
229
229
229
213
129
239
255
255
255
255
255
255
255
255
255
255
255
255
255
255
255
255
255
255
255
255
255
255
255
255
255
255
255
255
255
255
255
255
255
255
241
146
127
127
127
127
123
105
136
226
229
229
229
229
229
229
229
229
229
229
229
229
229
229
229
229
229
229
229
229
178
187
255
252
254
255
255
253
233
233
255
255
255
255
255
255
255
255
255
255
255
255
255
255
255
255
255
255
255
255
255
255
255
255
255
255
255
219
127
127
127
127
127
127
192
229
229
229
229
229
229
229
229
229
229
229
229
229
229
229
229
229
229
229
229
229
217
101
128
103
116
128
128
148
71
71
157
180
227
255
255
255
255
255
255
255
255
255
255
255
255
255
255
255
255
255
255
255
255
255
255
255
255
248
171
126
127
127
127
127
215
229
229
229
229
229
229
229
229
229
229
229
229
229
229
229
229
229
229
229
229
229
229
223
134
76
76
76
76
76
76
76
76
76
90
244
255
255
255
255
255
255
255
255
255
255
255
255
255
255
255
255
255
255
255
255
255
255
255
255
246
187
127
127
127
127
210
229
229
229
229
229
229
229
229
229
229
229
229
229
229
229
229
229
229
229
229
229
229
229
195
76
76
76
76
76
76
76
76
76
76
123
246
255
255
255
255
255
255
255
255
255
255
255
255
255
255
255
255
255
255
255
255
255
255
255
253
168
127
127
127
127
180
229
229
229
229
229
229
229
229
229
229
229
229
229
229
229
229
229
229
229
229
229
229
229
207
76
76
76
76
76
76
76
76
76
76
76
160
253
255
255
255
255
255
255
255
255
232
247
255
255
255
255
255
255
255
255
255
255
255
255
233
134
127
127
127
127
126
192
229
229
229
229
229
229
229
229
229
229
229
229
229
229
229
229
229
229
229
229
229
229
127
76
76
76
76
76
76
76
76
76
76
76
76
182
239
188
197
215
206
178
167
140
71
67
221
255
255
255
255
255
255
255
255
255
255
255
255
187
127
127
127
127
127
132
229
229
229
229
229
229
229
229
229
229
229
229
229
229
229
229
229
229
229
229
229
229
103
76
76
76
76
76
76
76
76
76
76
76
76
74
69
76
76
76
76
76
76
76
76
75
209
255
255
255
255
255
255
255
255
255
255
255
255
235
127
127
127
127
127
127
222
229
229
229
229
229
229
229
229
229
229
229
229
229
229
229
229
229
229
229
204
193
87
76
76
76
76
76
76
76
76
76
76
76
76
76
76
76
76
76
76
76
76
76
76
142
255
255
255
255
255
255
255
255
255
255
255
255
245
194
127
127
127
127
127
127
194
229
229
229
229
229
229
229
229
229
229
229
229
229
229
229
229
229
229
229
227
76
76
76
76
76
76
76
76
76
76
76
76
76
76
76
76
76
76
76
76
76
76
76
76
174
255
255
255
255
255
255
255
255
255
255
255
255
230
126
127
127
127
127
127
127
160
229
229
229
229
229
229
229
229
229
229
229
229
229
229
229
229
229
229
229
184
76
76
76
76
76
76
76
76
76
76
76
76
76
76
76
76
76
76
76
76
76
76
76
117
214
255
255
255
255
255
255
255
255
255
255
255
255
255
140
127
127
127
127
127
127
187
229
229
229
229
229
229
229
229
229
229
229
229
229
229
229
229
229
229
212
85
76
76
76
76
76
76
76
76
76
76
76
76
76
76
76
76
76
76
76
76
76
76
76
194
255
255
255
255
255
255
255
255
255
255
255
255
255
255
156
127
127
127
127
127
127
215
229
229
229
229
229
229
229
229
229
229
229
229
229
229
229
229
211
159
111
76
76
76
76
76
76
76
76
76
76
76
76
76
76
76
76
76
76
76
76
76
76
76
76
193
255
255
255
255
255
255
255
255
255
255
255
255
255
255
175
127
127
127
127
127
127
209
229
229
229
229
229
229
229
229
229
229
229
229
229
229
229
227
149
76
76
76
76
76
76
76
76
76
76
76
76
76
76
76
76
76
76
76
76
76
76
76
76
76
76
193
255
255
255
255
255
255
255
255
255
255
255
255
255
255
205
127
127
127
127
127
144
227
229
229
229
229
229
229
229
229
229
229
229
229
229
229
221
142
74
76
76
76
76
76
76
76
76
76
76
76
76
76
76
76
76
76
76
76
76
76
76
76
76
76
76
207
255
255
255
255
255
255
255
255
255
255
255
255
255
255
205
127
127
127
127
127
202
229
229
229
229
229
229
229
229
229
229
229
229
229
229
211
162
76
76
76
76
76
76
76
76
76
76
76
76
76
76
76
76
76
76
76
76
76
76
76
75
76
76
76
76
203
255
255
255
255
255
255
255
255
255
255
255
255
255
238
151
127
127
127
127
127
212
229
229
229
229
229
229
229
229
229
229
229
229
229
229
148
75
76
76
76
76
76
76
76
76
76
76
76
76
76
76
76
76
76
74
73
74
76
75
97
114
76
76
76
76
151
255
255
255
255
255
255
255
255
255
255
255
255
255
211
133
134
127
127
127
149
229
229
229
229
229
229
229
229
229
229
229
229
229
227
156
75
76
76
76
76
76
76
76
76
76
76
76
76
76
76
76
76
74
113
161
171
166
134
134
97
75
75
73
74
76
166
253
255
255
255
255
255
255
255
255
255
255
255
255
255
188
131
127
127
127
168
229
229
229
229
229
229
229
229
229
229
229
229
224
140
76
76
76
76
76
76
76
76
76
76
76
76
76
76
76
76
76
81
156
179
178
178
178
178
123
74
105
151
171
166
151
178
232
255
255
255
255
255
255
255
255
255
255
255
255
255
253
207
127
127
127
171
229
229
229
229
229
229
229
229
229
229
229
214
108
76
76
76
76
76
76
76
76
76
76
76
76
76
76
76
76
76
81
159
178
178
178
178
178
178
163
161
179
178
178
178
178
178
195
239
255
255
255
255
255
255
255
255
255
255
255
255
237
150
127
127
126
215
229
229
229
229
229
229
229
229
229
229
229
130
76
76
76
76
76
76
76
76
76
76
76
76
76
76
76
76
76
76
148
178
178
178
178
178
178
178
178
178
178
178
178
178
178
178
178
200
255
255
255
255
255
255
255
255
255
255
255
253
179
127
127
127
162
229
229
229
229
229
229
229
229
229
229
229
229
73
76
76
121
75
76
76
76
76
76
76
76
76
76
76
76
76
76
106
178
178
178
178
178
178
178
178
178
178
178
178
178
178
178
178
178
178
240
255
255
255
255
255
255
255
255
255
255
191
127
127
127
127
210
229
229
229
229
229
229
229
229
229
229
220
228
159
76
76
167
141
75
76
76
76
76
76
76
76
76
76
76
76
75
161
178
178
178
178
178
178
178
178
178
178
178
178
178
178
178
178
178
204
254
255
255
255
255
255
255
255
255
255
217
126
127
127
127
150
229
229
229
229
229
229
229
229
229
229
229
205
200
177
76
76
138
178
114
76
76
76
76
76
76
76
76
76
73
86
147
178
178
178
178
178
178
178
178
178
178
178
178
178
178
178
178
178
222
254
255
255
255
255
255
255
255
255
255
252
170
127
127
127
150
208
229
229
229
229
229
229
229
229
229
229
229
213
178
145
76
76
100
178
161
107
76
82
101
97
129
129
147
152
167
175
178
178
178
178
178
178
178
178
178
178
178
178
178
178
178
178
178
196
233
255
255
255
255
255
255
255
255
244
214
163
127
127
127
127
161
229
229
229
229
229
229
229
229
229
229
229
229
228
180
172
82
76
76
178
178
157
81
144
164
175
178
178
178
178
178
178
178
178
178
178
178
178
178
178
178
178
178
178
178
178
178
178
178
178
178
227
255
255
255
255
255
246
166
135
131
127
127
127
127
127
160
229
229
229
229
229
229
229
229
229
229
229
229
229
193
178
128
76
83
178
178
164
169
178
178
178
178
178
178
178
178
178
178
178
178
178
178
178
178
178
178
178
178
178
178
178
178
178
178
178
178
180
228
255
255
255
255
228
127
127
127
127
127
127
127
126
198
229
229
229
229
229
229
229
229
229
229
229
219
220
179
178
117
76
118
178
178
178
178
178
178
178
178
178
178
178
178
178
178
178
178
178
178
178
178
178
178
178
178
178
178
178
178
178
178
178
178
178
190
255
255
255
255
238
127
127
127
127
127
127
127
174
229
229
229
229
229
229
229
229
229
229
224
229
210
177
178
178
166
80
162
178
178
178
178
178
178
178
178
178
178
178
178
178
178
178
178
178
178
178
178
178
178
178
178
178
178
178
178
178
178
178
181
228
178
240
255
255
249
235
127
127
127
145
186
131
141
223
229
229
229
229
229
229
229
229
229
229
205
230
195
178
178
178
178
174
178
178
178
178
178
178
178
178
178
178
178
178
178
178
178
178
178
178
178
178
178
178
178
178
178
178
178
178
178
221
187
206
243
255
187
220
255
236
133
137
127
127
127
147
228
220
215
229
229
229
229
229
229
229
229
229
229
204
179
182
178
178
178
178
178
178
178
178
178
178
178
178
178
178
178
178
178
178
178
178
178
178
178
178
178
178
182
219
233
214
214
214
214
214
214
233
243
250
255
255
239
192
255
233
147
127
127
126
149
195
229
229
229
229
229
229
229
229
229
229
229
226
200
178
178
178
178
178
178
178
178
178
178
178
178
178
178
178
178
178
178
178
178
178
178
178
178
178
178
178
178
178
201
255
255
255
255
255
255
255
255
255
255
255
255
255
255
203
233
255
232
154
126
203
230
229
229
229
229
229
229
229
229
229
229
229
215
180
178
178
178
178
178
178
178
178
178
178
178
178
178
178
178
178
178
178
178
178
178
178
178
178
178
178
178
178
178
178
201
255
255
255
255
255
255
255
255
255
255
255
255
255
255
221
208
255
255
246
221
229
229
229
229
229
229
229
229
229
230
229
227
193
179
178
178
178
178
178
178
178
178
178
178
178
178
178
178
178
178
178
178
178
178
178
178
178
178
178
178
178
178
178
178
178
197
236
245
248
255
255
255
255
255
255
255
255
255
255
255
236
230
255
255
255
255
245
231
229
229
229
229
229
229
218
185
209
195
178
178
178
178
178
178
178
178
178
178
178
178
178
178
178
178
178
178
178
178
178
178
178
178
178
178
178
178
178
178
178
178
178
178
178
177
179
237
255
255
255
255
255
255
255
255
255
255
255
255
255
255
255
255
255
253
242
244
229
229
229
229
213
178
178
178
178
178
178
178
178
178
178
178
178
178
178
178
178
178
178
178
178
178
178
178
178
178
178
178
178
178
178
178
178
178
178
178
178
178
178
181
178
221
255
255
255
255
255
255
255
255
255
255
255
255
255
255
255
255
255
255
255
255
244
229
229
229
201
178
178
178
178
178
178
178
178
178
178
178
178
178
178
178
178
178
178
178
178
178
178
178
178
178
178
178
178
178
178
178
178
178
178
178
182
210
234
253
229
241
255
255
255
255
255
255
255
255
255
255
255
255
255
255
255
255
255
255
255
255
253
234
231
211
178
178
198
211
177
178
178
178
178
178
178
178
178
178
178
178
178
178
178
178
178
178
178
178
178
178
178
178
178
178
178
178
178
178
178
178
201
255
255
255
255
255
255
255
255
255
255
255
255
255
255
255
255
255
255
255
255
255
255
255
255
255
255
255
250
239
225
225
237
255
235
182
178
178
178
178
178
178
178
178
178
178
178
178
178
178
178
178
178
178
178
178
178
178
178
178
178
178
178
178
178
178
201
255
255
255
255
255
255
255
255
255
255
255
255
255
255
255
255
255
255
255
255
255
255
255
255
255
255
255
255
255
255
255
255
255
255
244
216
186
177
177
178
178
178
178
178
178
178
178
178
178
178
178
178
178
178
178
178
178
178
178
178
178
178
178
178
178
201
255
255
255
255
255
255
255
255
255
255
255
255
255
255
255
255
255
255
255
255
255
255
255
255
255
255
255
255
255
255
255
255
255
255
255
255
254
244
248
196
183
178
178
178
178
178
178
178
178
178
178
178
178
178
178
178
178
178
178
178
178
178
178
178
178
186
255
255
255
255
255
255
255
255
255
255
255
255
255
255
255
255
255
255
255
255
255
255
255
255
255
255
255
255
255
255
255
255
255
255
255
255
255
255
255
255
227
182
178
178
178
178
178
178
178
178
178
178
178
178
178
178
178
178
178
178
178
178
178
178
178
178
206
245
255
255
255
255
255
255
255
255
255
255
255
255
255
255
255
255
255
255
255
255
255
255
255
255
255
255
255
255
255
255
255
255
255
255
255
255
255
255
255
245
189
178
178
178
178
178
178
178
178
178
178
178
178
178
178
178
178
178
178
178
178
178
178
178
178
180
244
255
255
255
255
255
255
255
255
255
255
255
255
255
255
255
255
255
255
255
255
255
255
255
255
255
255
255
255
255
255
255
255
255
255
255
255
255
255
255
209
178
178
178
178
178
178
178
178
178
178
178
178
178
178
178
178
178
178
178
178
178
178
178
178
178
247
255
255
255
255
255
255
255
255
255
255
255
255
255
255
255
255
255
255
255
255
255
255
255
255
255
255
255
255
255
255
255
255
255
255
255
255
255
255
255
242
178
178
178
178
178
178
178
178
178
178
178
178
178
178
178
178
178
178
178
178
178
178
178
178
178
209
255
255
255
255
255
255
255
255
255
255
255
255
255
255
255
255
255
255
255
255
255
255
255
255
255
255
255
255
255
255
255
255
255
255
255
255
255
255
255
255
231
207
178
178
178
178
178
178
178
178
178
178
178
178
178
178
178
178
178
178
178
178
178
178
178
178
247
255
255
255
255
255
255
255
255
255
255
255
255
255
255
255
255
255
255
255
255
255
255
255
255
255
255
255
255
255
255
255
255
255
255
255
255
255
255
255
255
255
222
193
178
178
178
178
178
178
178
178
178
178
178
178
178
178
178
178
178
178
178
178
178
178
244
255
255
255
255
255
255
255
255
255
255
255
255
255
255
255
255
255
255
255
255
255
255
255
255
255
255
255
255
255
255
255
255
255
255
255
255
255
255
255
255
255
255
242
178
178
178
178
178
178
178
178
178
178
178
178
178
178
178
178
178
178
178
178
178
178
255
255
255
255
255
255
255
255
255
255
255
255
255
255
255
255
255
255
255
255
255
255
255
255
255
255
255
255
255
255
255
255
255
255
255
255
255
255
255
255
255
255
255
252
184
178
178
178
178
178
178
178
178
178
178
178
178
178
178
178
178
178
178
178
178
200
255
255
255
255
255
255
255
255
255
255
255
255
255
255
255
255
255
255
255
255
255
255
255
255
255
255
255
255
255
255
255
255
255
255
255
255
255
255
255
255
255
255
255
255
236
223
178
178
178
178
178
178
178
178
178
178
178
178
178
178
178
178
178
178
178
211
255
255
255
255
255
255
255
255
255
255
255
255
255
255
255
255
255
255
255
255
255
255
255
255
255
255
255
255
255
255
255
255
255
255
255
255
255
255
255
255
255
255
255
255
255
255
195
178
178
178
178
178
178
178
178
178
178
178
178
178
178
178
178
178
178
229
255
255
255
255
255
255
255
255
255
255
255
255
255
255
255
255
255
255
255
255
255
255
255
255
255
255
255
255
255
255
255
255
255
255
255
255
255
255
255
255
255
255
255
255
255
251
190
178
178
178
178
178
178
233
214
177
178
204
204
178
178
178
178
178
178
239
255
255
255
255
255
255
255
255
255
255
255
255
255
255
255
255
255
255
255
255
255
255
255
255
255
255
255
255
255
255
255
255
255
255
255
255
255
255
255
255
255
255
255
255
255
255
241
193
199
214
199
209
241
255
255
246
241
255
255
219
194
178
178
178
178
255
255
255
255
255
255
255
255
255
255
255
255
255
255
255
255
255
255
255
255
255
255
255
255
255
255
255
255
255
255
255
255
255
255
255
255
255
255
255
255
255
255
255
255
255
255
255
255
255
255
255
255
255
255
255
255
255
255
255
255
255
255
228
183
178
201
255
255
255
255
255
255
255
255
255
255
255
255
255
255
255
255
255
255
255
255
255
255
255
255
255
255
255
255
255
255
255
255
255
255
255
255
255
255
255
255
255
255
255
255
255
255
255
255
255
255
255
255
255
255
255
255
255
255
255
255
255
255
255
207
178
211
255
255
255
255
255
255
255
255
255
255
255
255
255
255
255
255
255
255
255
255
255
255
255
255
255
255
255
255
255
255
255
255
255
255
255
255
255
255
255
255
255
255
255
255
255
255
255
255
255
255
255
255
255
255
255
255
255
255
255
255
255
255
240
178
178
221
255
255
255
255
255
255
255
255
255
255
255
255
255
255
255
255
255
255
255
255
255
255
255
255
255
255
255
255
255
255
255
255
255
255
255
255
255
255
255
255
255
255
255
255
255
255
255
255
255
255
255
255
255
255
255
255
255
255
255
255
255
255
191
178
178
234
255
255
255
255
255
255
255
255
255
255
255
255
255
255
255
255
255
255
255
255
255
255
255
255
255
255
255
255
255
255
255
255
255
255
255
255
255
255
255
255
255
255
255
255
255
255
255
255
255
255
255
255
255
255
255
255
255
255
255
255
255
222
178
178
178
251
255
255
255
255
255
255
255
255
255
255
255
255
255
255
255
255
255
255
255
255
255
255
255
255
255
255
255
255
255
255
255
255
255
255
255
255
255
255
255
255
255
255
255
255
255
255
255
255
255
255
255
255
255
255
255
255
255
255
255
255
247
178
178
178
184
255
255
255
255
255
255
255
255
255
255
255
255
255
255
255
255
255
255
255
255
255
255
255
255
255
255
255
255
255
255
255
255
255
255
255
255
255
255
255
255
255
255
255
255
255
255
255
255
255
255
255
255
255
255
255
255
255
255
255
255
255
206
178
189
178
201
255
255
255
255
255
255
255
255
255
255
255
255
255
255
255
255
255
255
255
255
255
255
255
255
255
255
255
255
255
255
255
255
255
255
255
255
255
255
255
255
255
255
255
255
255
255
255
255
255
255
255
255
255
255
255
255
255
255
255
255
255
255
247
247
184
216
255
255
255
255
255
255
255
255
255
255
255
255
255
255
255
255
255
255
255
255
255
255
255
255
255
255
255
255
255
255
255
255
255
255
255
255
255
255
255
255
255
255
255
255
255
255
255
255
255
255
255
255
255
255
255
255
255
255
255
255
255
255
255
255
234
239
255
255
255
255
255
255
255
255
255
255
255
255
255
255
255
255
255
255
255
255
255
255
255
255
255
255
255
255
255
255
255
255
255
255
255
255
255
255
255
255
255
255
255
255
255
255
255
255
255
255
255
255
255
255
255
255
255
255
255
255
255
255
255
255
255
255
255
255
255
255
255
255
255
255
255
255
255
255
255
255
255
255
